M48
;DRILL file {KiCad (5.0.0)} date 10/08/18 17:29:01
;FORMAT={-:-/ absolute / inch / decimal}
FMAT,2
INCH,TZ
T1C0.0177
T2C0.0354
T3C0.0394
T4C0.0472
T5C0.0787
T6C0.0906
%
G90
G05
M72
T1
X4.4882Y-4.8524
X4.4882Y-4.9803
X4.5768Y-4.2028
X4.5768Y-4.5177
X4.6358Y-5.4724
X4.6555Y-4.9803
X4.6654Y-4.5866
X4.6654Y-4.7343
X4.6654Y-4.8524
X4.7244Y-4.2028
X4.7638Y-5.4724
X4.7835Y-4.311
X4.9016Y-4.5866
X4.9016Y-4.7244
X4.9016Y-4.8819
X4.9016Y-5.0394
X4.9016Y-5.1378
X4.9016Y-5.2559
X4.9016Y-5.3642
X4.9016Y-5.4724
X4.9114Y-4.1831
T2
X4.2431Y-5.2264
X4.2437Y-5.0295
X4.2437Y-5.3248
X4.2441Y-5.128
X4.2431Y-4.5472
X4.2437Y-4.3504
X4.2437Y-4.6457
X4.2441Y-4.4488
T3
X4.5472Y-4.1083
X4.6457Y-4.1083
X4.7244Y-4.1083
X4.8228Y-4.1083
T4
X4.5945Y-4.0256
X4.7756Y-4.0256
T5
X4.9154Y-4.0256
T6
X4.3504Y-4.9185
X4.3504Y-5.4358
X4.3504Y-4.2394
X4.3504Y-4.7567
T5
X4.4547Y-4.0256G85X4.4547Y-4.0256
G05
T0
M30
