G04 #@! TF.GenerationSoftware,KiCad,Pcbnew,(5.0.0)*
G04 #@! TF.CreationDate,2018-10-08T17:29:21-04:00*
G04 #@! TF.ProjectId,m3_usb_split,6D335F7573625F73706C69742E6B6963,0*
G04 #@! TF.SameCoordinates,Original*
G04 #@! TF.FileFunction,Copper,L2,Bot,Signal*
G04 #@! TF.FilePolarity,Positive*
%FSLAX46Y46*%
G04 Gerber Fmt 4.6, Leading zero omitted, Abs format (unit mm)*
G04 Created by KiCad (PCBNEW (5.0.0)) date 10/08/18 17:29:21*
%MOMM*%
%LPD*%
G01*
G04 APERTURE LIST*
G04 #@! TA.AperFunction,ComponentPad*
%ADD10C,1.900000*%
G04 #@! TD*
G04 #@! TA.AperFunction,ComponentPad*
%ADD11C,3.300000*%
G04 #@! TD*
G04 #@! TA.AperFunction,ComponentPad*
%ADD12O,2.500000X3.500000*%
G04 #@! TD*
G04 #@! TA.AperFunction,ComponentPad*
%ADD13C,2.200000*%
G04 #@! TD*
G04 #@! TA.AperFunction,ComponentPad*
%ADD14C,1.800000*%
G04 #@! TD*
G04 #@! TA.AperFunction,SMDPad,CuDef*
%ADD15R,1.300000X0.700000*%
G04 #@! TD*
G04 #@! TA.AperFunction,SMDPad,CuDef*
%ADD16R,0.650000X1.060000*%
G04 #@! TD*
G04 #@! TA.AperFunction,SMDPad,CuDef*
%ADD17R,2.500000X1.000000*%
G04 #@! TD*
G04 #@! TA.AperFunction,ViaPad*
%ADD18C,1.100000*%
G04 #@! TD*
G04 #@! TA.AperFunction,Conductor*
%ADD19C,0.500000*%
G04 #@! TD*
G04 #@! TA.AperFunction,Conductor*
%ADD20C,1.000000*%
G04 #@! TD*
G04 #@! TA.AperFunction,Conductor*
%ADD21C,1.500000*%
G04 #@! TD*
G04 #@! TA.AperFunction,Conductor*
%ADD22C,1.200000*%
G04 #@! TD*
G04 #@! TA.AperFunction,Conductor*
%ADD23C,0.300000*%
G04 #@! TD*
G04 APERTURE END LIST*
D10*
G04 #@! TO.P,J3,4*
G04 #@! TO.N,GND*
X107790000Y-127750000D03*
G04 #@! TO.P,J3,3*
G04 #@! TO.N,Net-(J3-Pad3)*
X107800000Y-130250000D03*
G04 #@! TO.P,J3,2*
G04 #@! TO.N,Net-(J3-Pad2)*
X107775000Y-132750000D03*
G04 #@! TO.P,J3,1*
G04 #@! TO.N,VBUS*
X107790000Y-135250000D03*
D11*
G04 #@! TO.P,J3,5*
G04 #@! TO.N,GND*
X110500000Y-124930000D03*
X110500000Y-138070000D03*
G04 #@! TD*
D12*
G04 #@! TO.P,J1,5*
G04 #@! TO.N,GND*
X124850000Y-102250000D03*
X113150000Y-102250000D03*
D13*
X121300000Y-102250000D03*
X116700000Y-102250000D03*
D14*
G04 #@! TO.P,J1,4*
X122500000Y-104350000D03*
G04 #@! TO.P,J1,3*
G04 #@! TO.N,Net-(J1-Pad3)*
X120000000Y-104350000D03*
G04 #@! TO.P,J1,2*
G04 #@! TO.N,Net-(J1-Pad2)*
X118000000Y-104350000D03*
G04 #@! TO.P,J1,1*
G04 #@! TO.N,VBUS*
X115500000Y-104350000D03*
G04 #@! TD*
D11*
G04 #@! TO.P,J2,5*
G04 #@! TO.N,GND*
X110500000Y-120820000D03*
X110500000Y-107680000D03*
D10*
G04 #@! TO.P,J2,1*
G04 #@! TO.N,VBUS*
X107790000Y-118000000D03*
G04 #@! TO.P,J2,2*
G04 #@! TO.N,Net-(J1-Pad2)*
X107775000Y-115500000D03*
G04 #@! TO.P,J2,3*
G04 #@! TO.N,Net-(J1-Pad3)*
X107800000Y-113000000D03*
G04 #@! TO.P,J2,4*
G04 #@! TO.N,GND*
X107790000Y-110500000D03*
G04 #@! TD*
D15*
G04 #@! TO.P,R1,2*
G04 #@! TO.N,Net-(J3-Pad2)*
X111000000Y-132450000D03*
G04 #@! TO.P,R1,1*
G04 #@! TO.N,Net-(J3-Pad3)*
X111000000Y-130550000D03*
G04 #@! TD*
D16*
G04 #@! TO.P,U1,5*
G04 #@! TO.N,VBUS*
X114000000Y-132600000D03*
G04 #@! TO.P,U1,6*
G04 #@! TO.N,Net-(J3-Pad2)*
X113050000Y-132600000D03*
G04 #@! TO.P,U1,4*
G04 #@! TO.N,Net-(U1-Pad4)*
X114950000Y-132600000D03*
G04 #@! TO.P,U1,3*
G04 #@! TO.N,Net-(U1-Pad3)*
X114950000Y-130400000D03*
G04 #@! TO.P,U1,2*
G04 #@! TO.N,GND*
X114000000Y-130400000D03*
G04 #@! TO.P,U1,1*
G04 #@! TO.N,Net-(J3-Pad3)*
X113050000Y-130400000D03*
G04 #@! TD*
D17*
G04 #@! TO.P,C2,2*
G04 #@! TO.N,GND*
X115000000Y-121000000D03*
G04 #@! TO.P,C2,1*
G04 #@! TO.N,VBUS*
X115000000Y-118000000D03*
G04 #@! TD*
G04 #@! TO.P,C1,2*
G04 #@! TO.N,GND*
X115000000Y-138000000D03*
G04 #@! TO.P,C1,1*
G04 #@! TO.N,VBUS*
X115000000Y-135000000D03*
G04 #@! TD*
D18*
G04 #@! TO.N,GND*
X124750000Y-106250000D03*
X121500000Y-109500000D03*
X116250000Y-114750000D03*
X117750000Y-139000000D03*
X118250000Y-126500000D03*
X114000000Y-126500000D03*
X114000000Y-123250000D03*
X118500000Y-123250000D03*
X118500000Y-120250000D03*
X118500000Y-116500000D03*
X124500000Y-116500000D03*
X124500000Y-120000000D03*
X124500000Y-124000000D03*
X124500000Y-128000000D03*
X124500000Y-130500000D03*
X124500000Y-133500000D03*
X124500000Y-136250000D03*
X124500000Y-139000000D03*
X121000000Y-139000000D03*
G04 #@! TO.N,Net-(J1-Pad3)*
X120000000Y-106750000D03*
X116250000Y-106750000D03*
G04 #@! TD*
D19*
G04 #@! TO.N,GND*
X114000000Y-130400000D02*
X114000000Y-129000000D01*
X108790000Y-128750000D02*
X107790000Y-127750000D01*
X113750000Y-128750000D02*
X108790000Y-128750000D01*
X114000000Y-129000000D02*
X113750000Y-128750000D01*
D20*
X116250000Y-114750000D02*
X121500000Y-109500000D01*
X110500000Y-138000000D02*
X114930000Y-138000000D01*
D19*
X118250000Y-126500000D02*
X114000000Y-126500000D01*
X118500000Y-123250000D02*
X114000000Y-123250000D01*
X118500000Y-116500000D02*
X118500000Y-120250000D01*
X124500000Y-120000000D02*
X124500000Y-116500000D01*
X124500000Y-128000000D02*
X124500000Y-124000000D01*
X124500000Y-133500000D02*
X124500000Y-130500000D01*
X124500000Y-139000000D02*
X124500000Y-136250000D01*
X121000000Y-139000000D02*
X117750000Y-139000000D01*
X110500000Y-138070000D02*
X107180000Y-138070000D01*
X107180000Y-138070000D02*
X107000000Y-138250000D01*
D20*
G04 #@! TO.N,VBUS*
X107790000Y-118000000D02*
X115000000Y-118000000D01*
X107790000Y-135250000D02*
X109500000Y-135250000D01*
X109750000Y-135000000D02*
X115000000Y-135000000D01*
X109500000Y-135250000D02*
X109750000Y-135000000D01*
D19*
X114000000Y-132600000D02*
X114000000Y-135000000D01*
X114000000Y-135000000D02*
X115000000Y-135000000D01*
D21*
G04 #@! TO.N,Net-(J1-Pad3)*
X120000000Y-106750000D02*
X120000000Y-104350000D01*
D22*
X116250000Y-107500000D02*
X116250000Y-106750000D01*
D21*
X110750000Y-113000000D02*
X116000000Y-107750000D01*
X107800000Y-113000000D02*
X110750000Y-113000000D01*
G04 #@! TO.N,Net-(J1-Pad2)*
X118000000Y-104350000D02*
X118000000Y-108500000D01*
X111000000Y-115500000D02*
X107775000Y-115500000D01*
X118000000Y-108500000D02*
X111000000Y-115500000D01*
D19*
G04 #@! TO.N,Net-(J3-Pad3)*
X107800000Y-130500000D02*
X110700000Y-130500000D01*
X110850000Y-130500000D02*
X113050000Y-130500000D01*
G04 #@! TO.N,Net-(J3-Pad2)*
X107775000Y-132500000D02*
X110700000Y-132500000D01*
X110850000Y-132500000D02*
X113050000Y-132500000D01*
G04 #@! TD*
D23*
G04 #@! TO.N,GND*
G36*
X111674670Y-100523679D02*
X111463775Y-100835065D01*
X111317680Y-101181611D01*
X111242000Y-101550000D01*
X111242000Y-102050000D01*
X112950000Y-102050000D01*
X112950000Y-102030000D01*
X113350000Y-102030000D01*
X113350000Y-102050000D01*
X113370000Y-102050000D01*
X113370000Y-102450000D01*
X113350000Y-102450000D01*
X113350000Y-105000000D01*
X113352882Y-105029264D01*
X113361418Y-105057403D01*
X113375280Y-105083336D01*
X113393934Y-105106066D01*
X114100000Y-105812132D01*
X114100000Y-107437868D01*
X110437868Y-111100000D01*
X109282354Y-111100000D01*
X109329806Y-110989631D01*
X109395742Y-110679821D01*
X109399970Y-110363102D01*
X109342327Y-110051643D01*
X109225029Y-109757415D01*
X109204697Y-109719375D01*
X108947840Y-109625003D01*
X108072843Y-110500000D01*
X108086985Y-110514142D01*
X107804142Y-110796985D01*
X107790000Y-110782843D01*
X107775858Y-110796985D01*
X107493015Y-110514142D01*
X107507157Y-110500000D01*
X106632160Y-109625003D01*
X106375303Y-109719375D01*
X106250194Y-110010369D01*
X106184258Y-110320179D01*
X106180030Y-110636898D01*
X106237673Y-110948357D01*
X106298128Y-111100000D01*
X106000000Y-111100000D01*
X105970736Y-111102882D01*
X105942597Y-111111418D01*
X105916664Y-111125280D01*
X105893934Y-111143934D01*
X105875280Y-111166664D01*
X105861418Y-111192597D01*
X105852882Y-111220736D01*
X105850000Y-111250000D01*
X105850000Y-119750000D01*
X105852882Y-119779264D01*
X105861418Y-119807403D01*
X105875280Y-119833336D01*
X105893934Y-119856066D01*
X105916664Y-119874720D01*
X105942597Y-119888582D01*
X105970736Y-119897118D01*
X106000000Y-119900000D01*
X108381831Y-119900000D01*
X108317979Y-120034304D01*
X108206624Y-120475092D01*
X108183403Y-120929136D01*
X108249207Y-121378985D01*
X108401508Y-121807352D01*
X108513187Y-122016290D01*
X108841577Y-122195581D01*
X110217157Y-120820000D01*
X110203015Y-120805858D01*
X110485858Y-120523015D01*
X110500000Y-120537157D01*
X110514142Y-120523015D01*
X110796985Y-120805858D01*
X110782843Y-120820000D01*
X112158423Y-122195581D01*
X112486813Y-122016290D01*
X112682021Y-121605696D01*
X112742953Y-121364500D01*
X113092000Y-121364500D01*
X113092000Y-121564807D01*
X113117287Y-121691931D01*
X113166888Y-121811680D01*
X113238898Y-121919450D01*
X113330549Y-122011102D01*
X113438320Y-122083112D01*
X113558068Y-122132713D01*
X113685192Y-122158000D01*
X114635500Y-122158000D01*
X114800000Y-121993500D01*
X114800000Y-121200000D01*
X115200000Y-121200000D01*
X115200000Y-121993500D01*
X115364500Y-122158000D01*
X116314808Y-122158000D01*
X116441932Y-122132713D01*
X116561680Y-122083112D01*
X116669451Y-122011102D01*
X116761102Y-121919450D01*
X116833112Y-121811680D01*
X116882713Y-121691931D01*
X116908000Y-121564807D01*
X116908000Y-121364500D01*
X116743500Y-121200000D01*
X115200000Y-121200000D01*
X114800000Y-121200000D01*
X113256500Y-121200000D01*
X113092000Y-121364500D01*
X112742953Y-121364500D01*
X112793376Y-121164908D01*
X112816597Y-120710864D01*
X112776272Y-120435193D01*
X113092000Y-120435193D01*
X113092000Y-120635500D01*
X113256500Y-120800000D01*
X114800000Y-120800000D01*
X114800000Y-120006500D01*
X115200000Y-120006500D01*
X115200000Y-120800000D01*
X116743500Y-120800000D01*
X116908000Y-120635500D01*
X116908000Y-120435193D01*
X116882713Y-120308069D01*
X116833112Y-120188320D01*
X116761102Y-120080550D01*
X116669451Y-119988898D01*
X116561680Y-119916888D01*
X116441932Y-119867287D01*
X116314808Y-119842000D01*
X115364500Y-119842000D01*
X115200000Y-120006500D01*
X114800000Y-120006500D01*
X114635500Y-119842000D01*
X113685192Y-119842000D01*
X113558068Y-119867287D01*
X113438320Y-119916888D01*
X113330549Y-119988898D01*
X113238898Y-120080550D01*
X113166888Y-120188320D01*
X113117287Y-120308069D01*
X113092000Y-120435193D01*
X112776272Y-120435193D01*
X112750793Y-120261015D01*
X112598492Y-119832648D01*
X112500865Y-119650000D01*
X117500000Y-119650000D01*
X117529264Y-119647118D01*
X117557403Y-119638582D01*
X117583336Y-119624720D01*
X117606066Y-119606066D01*
X117624720Y-119583336D01*
X117638582Y-119557403D01*
X117647118Y-119529264D01*
X117650000Y-119500000D01*
X117650000Y-116250000D01*
X117647118Y-116220736D01*
X117638582Y-116192597D01*
X117624720Y-116166664D01*
X117606066Y-116143934D01*
X117583336Y-116125280D01*
X117557403Y-116111418D01*
X117529264Y-116102882D01*
X117500000Y-116100000D01*
X113900000Y-116100000D01*
X113900000Y-114812132D01*
X120312132Y-108400000D01*
X121500000Y-108400000D01*
X121529264Y-108397118D01*
X121557403Y-108388582D01*
X121583336Y-108374720D01*
X121606066Y-108356066D01*
X121624720Y-108333336D01*
X121638582Y-108307403D01*
X121647118Y-108279264D01*
X121650000Y-108250000D01*
X121650000Y-105482846D01*
X121660885Y-105471961D01*
X121749143Y-105723726D01*
X122031571Y-105843815D01*
X122332001Y-105906498D01*
X122638886Y-105909365D01*
X122940435Y-105852307D01*
X123225057Y-105737516D01*
X123250857Y-105723726D01*
X123339116Y-105471959D01*
X122500000Y-104632843D01*
X122485858Y-104646985D01*
X122203015Y-104364142D01*
X122217157Y-104350000D01*
X122203015Y-104335858D01*
X122485858Y-104053015D01*
X122500000Y-104067157D01*
X122514142Y-104053015D01*
X122796985Y-104335858D01*
X122782843Y-104350000D01*
X123621959Y-105189116D01*
X123873726Y-105100857D01*
X123993815Y-104818429D01*
X124056498Y-104517999D01*
X124056774Y-104488453D01*
X124304615Y-104589298D01*
X124355630Y-104592841D01*
X124650000Y-104481991D01*
X124650000Y-102450000D01*
X124630000Y-102450000D01*
X124630000Y-102050000D01*
X124650000Y-102050000D01*
X124650000Y-102030000D01*
X125050000Y-102030000D01*
X125050000Y-102050000D01*
X125070000Y-102050000D01*
X125070000Y-102450000D01*
X125050000Y-102450000D01*
X125050000Y-104481991D01*
X125344370Y-104592841D01*
X125395385Y-104589298D01*
X125600000Y-104506042D01*
X125600000Y-139600000D01*
X112248772Y-139600000D01*
X112280809Y-139567963D01*
X112158426Y-139445580D01*
X112486813Y-139266290D01*
X112682021Y-138855696D01*
X112793376Y-138414908D01*
X112795953Y-138364500D01*
X113092000Y-138364500D01*
X113092000Y-138564807D01*
X113117287Y-138691931D01*
X113166888Y-138811680D01*
X113238898Y-138919450D01*
X113330549Y-139011102D01*
X113438320Y-139083112D01*
X113558068Y-139132713D01*
X113685192Y-139158000D01*
X114635500Y-139158000D01*
X114800000Y-138993500D01*
X114800000Y-138200000D01*
X115200000Y-138200000D01*
X115200000Y-138993500D01*
X115364500Y-139158000D01*
X116314808Y-139158000D01*
X116441932Y-139132713D01*
X116561680Y-139083112D01*
X116669451Y-139011102D01*
X116761102Y-138919450D01*
X116833112Y-138811680D01*
X116882713Y-138691931D01*
X116908000Y-138564807D01*
X116908000Y-138364500D01*
X116743500Y-138200000D01*
X115200000Y-138200000D01*
X114800000Y-138200000D01*
X113256500Y-138200000D01*
X113092000Y-138364500D01*
X112795953Y-138364500D01*
X112816597Y-137960864D01*
X112750793Y-137511015D01*
X112622438Y-137150000D01*
X113192493Y-137150000D01*
X113166888Y-137188320D01*
X113117287Y-137308069D01*
X113092000Y-137435193D01*
X113092000Y-137635500D01*
X113256500Y-137800000D01*
X114800000Y-137800000D01*
X114800000Y-137780000D01*
X115200000Y-137780000D01*
X115200000Y-137800000D01*
X116743500Y-137800000D01*
X116908000Y-137635500D01*
X116908000Y-137435193D01*
X116882713Y-137308069D01*
X116833112Y-137188320D01*
X116807507Y-137150000D01*
X118000000Y-137150000D01*
X118029264Y-137147118D01*
X118057403Y-137138582D01*
X118083336Y-137124720D01*
X118106066Y-137106066D01*
X118124720Y-137083336D01*
X118138582Y-137057403D01*
X118147118Y-137029264D01*
X118150000Y-137000000D01*
X118150000Y-132000000D01*
X118147118Y-131970736D01*
X118138582Y-131942597D01*
X118124720Y-131916664D01*
X118106066Y-131893934D01*
X118083336Y-131875280D01*
X118057403Y-131861418D01*
X118029264Y-131852882D01*
X118000000Y-131850000D01*
X116900000Y-131850000D01*
X116900000Y-127250000D01*
X116897118Y-127220736D01*
X116888582Y-127192597D01*
X116874720Y-127166664D01*
X116856066Y-127143934D01*
X116833336Y-127125280D01*
X116807403Y-127111418D01*
X116779264Y-127102882D01*
X116750000Y-127100000D01*
X115000000Y-127100000D01*
X114970736Y-127102882D01*
X114942597Y-127111418D01*
X114916664Y-127125280D01*
X114893934Y-127143934D01*
X113437868Y-128600000D01*
X109015876Y-128600000D01*
X109204697Y-128530625D01*
X109329806Y-128239631D01*
X109395742Y-127929821D01*
X109399970Y-127613102D01*
X109342327Y-127301643D01*
X109225029Y-127007415D01*
X109204697Y-126969375D01*
X108947840Y-126875003D01*
X108072843Y-127750000D01*
X108086985Y-127764142D01*
X107804142Y-128046985D01*
X107790000Y-128032843D01*
X107775858Y-128046985D01*
X107493015Y-127764142D01*
X107507157Y-127750000D01*
X106632160Y-126875003D01*
X106375303Y-126969375D01*
X106250194Y-127260369D01*
X106184258Y-127570179D01*
X106180030Y-127886898D01*
X106237673Y-128198357D01*
X106354971Y-128492585D01*
X106375303Y-128530625D01*
X106564124Y-128600000D01*
X105750000Y-128600000D01*
X105720736Y-128602882D01*
X105692597Y-128611418D01*
X105666664Y-128625280D01*
X105643934Y-128643934D01*
X105625280Y-128666664D01*
X105611418Y-128692597D01*
X105602882Y-128720736D01*
X105600000Y-128750000D01*
X105600000Y-136750000D01*
X105602882Y-136779264D01*
X105611418Y-136807403D01*
X105625280Y-136833336D01*
X105643934Y-136856066D01*
X105666664Y-136874720D01*
X105692597Y-136888582D01*
X105720736Y-136897118D01*
X105750000Y-136900000D01*
X108500688Y-136900000D01*
X108317979Y-137284304D01*
X108206624Y-137725092D01*
X108183403Y-138179136D01*
X108249207Y-138628985D01*
X108401508Y-139057352D01*
X108513187Y-139266290D01*
X108841574Y-139445580D01*
X108719191Y-139567963D01*
X108751228Y-139600000D01*
X103650000Y-139600000D01*
X103650000Y-126592160D01*
X106915003Y-126592160D01*
X107790000Y-127467157D01*
X108664997Y-126592160D01*
X108663624Y-126588423D01*
X109124419Y-126588423D01*
X109303710Y-126916813D01*
X109714304Y-127112021D01*
X110155092Y-127223376D01*
X110609136Y-127246597D01*
X111058985Y-127180793D01*
X111487352Y-127028492D01*
X111696290Y-126916813D01*
X111875581Y-126588423D01*
X110500000Y-125212843D01*
X109124419Y-126588423D01*
X108663624Y-126588423D01*
X108570625Y-126335303D01*
X108279631Y-126210194D01*
X107969821Y-126144258D01*
X107653102Y-126140030D01*
X107341643Y-126197673D01*
X107047415Y-126314971D01*
X107009375Y-126335303D01*
X106915003Y-126592160D01*
X103650000Y-126592160D01*
X103650000Y-125039136D01*
X108183403Y-125039136D01*
X108249207Y-125488985D01*
X108401508Y-125917352D01*
X108513187Y-126126290D01*
X108841577Y-126305581D01*
X110217157Y-124930000D01*
X110782843Y-124930000D01*
X112158423Y-126305581D01*
X112486813Y-126126290D01*
X112682021Y-125715696D01*
X112793376Y-125274908D01*
X112816597Y-124820864D01*
X112750793Y-124371015D01*
X112598492Y-123942648D01*
X112486813Y-123733710D01*
X112158423Y-123554419D01*
X110782843Y-124930000D01*
X110217157Y-124930000D01*
X108841577Y-123554419D01*
X108513187Y-123733710D01*
X108317979Y-124144304D01*
X108206624Y-124585092D01*
X108183403Y-125039136D01*
X103650000Y-125039136D01*
X103650000Y-122478423D01*
X109124419Y-122478423D01*
X109303710Y-122806813D01*
X109438742Y-122871011D01*
X109303710Y-122943187D01*
X109124419Y-123271577D01*
X110500000Y-124647157D01*
X111875581Y-123271577D01*
X111696290Y-122943187D01*
X111561258Y-122878989D01*
X111696290Y-122806813D01*
X111875581Y-122478423D01*
X110500000Y-121102843D01*
X109124419Y-122478423D01*
X103650000Y-122478423D01*
X103650000Y-109342160D01*
X106915003Y-109342160D01*
X107790000Y-110217157D01*
X108664997Y-109342160D01*
X108663624Y-109338423D01*
X109124419Y-109338423D01*
X109303710Y-109666813D01*
X109714304Y-109862021D01*
X110155092Y-109973376D01*
X110609136Y-109996597D01*
X111058985Y-109930793D01*
X111487352Y-109778492D01*
X111696290Y-109666813D01*
X111875581Y-109338423D01*
X110500000Y-107962843D01*
X109124419Y-109338423D01*
X108663624Y-109338423D01*
X108570625Y-109085303D01*
X108279631Y-108960194D01*
X107969821Y-108894258D01*
X107653102Y-108890030D01*
X107341643Y-108947673D01*
X107047415Y-109064971D01*
X107009375Y-109085303D01*
X106915003Y-109342160D01*
X103650000Y-109342160D01*
X103650000Y-107789136D01*
X108183403Y-107789136D01*
X108249207Y-108238985D01*
X108401508Y-108667352D01*
X108513187Y-108876290D01*
X108841577Y-109055581D01*
X110217157Y-107680000D01*
X110782843Y-107680000D01*
X112158423Y-109055581D01*
X112486813Y-108876290D01*
X112682021Y-108465696D01*
X112793376Y-108024908D01*
X112816597Y-107570864D01*
X112750793Y-107121015D01*
X112598492Y-106692648D01*
X112486813Y-106483710D01*
X112158423Y-106304419D01*
X110782843Y-107680000D01*
X110217157Y-107680000D01*
X108841577Y-106304419D01*
X108513187Y-106483710D01*
X108317979Y-106894304D01*
X108206624Y-107335092D01*
X108183403Y-107789136D01*
X103650000Y-107789136D01*
X103650000Y-106021577D01*
X109124419Y-106021577D01*
X110500000Y-107397157D01*
X111875581Y-106021577D01*
X111696290Y-105693187D01*
X111285696Y-105497979D01*
X110844908Y-105386624D01*
X110390864Y-105363403D01*
X109941015Y-105429207D01*
X109512648Y-105581508D01*
X109303710Y-105693187D01*
X109124419Y-106021577D01*
X103650000Y-106021577D01*
X103650000Y-102450000D01*
X111242000Y-102450000D01*
X111242000Y-102950000D01*
X111317680Y-103318389D01*
X111463775Y-103664935D01*
X111674670Y-103976321D01*
X111942261Y-104240580D01*
X112256265Y-104447557D01*
X112604615Y-104589298D01*
X112655630Y-104592841D01*
X112950000Y-104481991D01*
X112950000Y-102450000D01*
X111242000Y-102450000D01*
X103650000Y-102450000D01*
X103650000Y-100400000D01*
X111799908Y-100400000D01*
X111674670Y-100523679D01*
X111674670Y-100523679D01*
G37*
X111674670Y-100523679D02*
X111463775Y-100835065D01*
X111317680Y-101181611D01*
X111242000Y-101550000D01*
X111242000Y-102050000D01*
X112950000Y-102050000D01*
X112950000Y-102030000D01*
X113350000Y-102030000D01*
X113350000Y-102050000D01*
X113370000Y-102050000D01*
X113370000Y-102450000D01*
X113350000Y-102450000D01*
X113350000Y-105000000D01*
X113352882Y-105029264D01*
X113361418Y-105057403D01*
X113375280Y-105083336D01*
X113393934Y-105106066D01*
X114100000Y-105812132D01*
X114100000Y-107437868D01*
X110437868Y-111100000D01*
X109282354Y-111100000D01*
X109329806Y-110989631D01*
X109395742Y-110679821D01*
X109399970Y-110363102D01*
X109342327Y-110051643D01*
X109225029Y-109757415D01*
X109204697Y-109719375D01*
X108947840Y-109625003D01*
X108072843Y-110500000D01*
X108086985Y-110514142D01*
X107804142Y-110796985D01*
X107790000Y-110782843D01*
X107775858Y-110796985D01*
X107493015Y-110514142D01*
X107507157Y-110500000D01*
X106632160Y-109625003D01*
X106375303Y-109719375D01*
X106250194Y-110010369D01*
X106184258Y-110320179D01*
X106180030Y-110636898D01*
X106237673Y-110948357D01*
X106298128Y-111100000D01*
X106000000Y-111100000D01*
X105970736Y-111102882D01*
X105942597Y-111111418D01*
X105916664Y-111125280D01*
X105893934Y-111143934D01*
X105875280Y-111166664D01*
X105861418Y-111192597D01*
X105852882Y-111220736D01*
X105850000Y-111250000D01*
X105850000Y-119750000D01*
X105852882Y-119779264D01*
X105861418Y-119807403D01*
X105875280Y-119833336D01*
X105893934Y-119856066D01*
X105916664Y-119874720D01*
X105942597Y-119888582D01*
X105970736Y-119897118D01*
X106000000Y-119900000D01*
X108381831Y-119900000D01*
X108317979Y-120034304D01*
X108206624Y-120475092D01*
X108183403Y-120929136D01*
X108249207Y-121378985D01*
X108401508Y-121807352D01*
X108513187Y-122016290D01*
X108841577Y-122195581D01*
X110217157Y-120820000D01*
X110203015Y-120805858D01*
X110485858Y-120523015D01*
X110500000Y-120537157D01*
X110514142Y-120523015D01*
X110796985Y-120805858D01*
X110782843Y-120820000D01*
X112158423Y-122195581D01*
X112486813Y-122016290D01*
X112682021Y-121605696D01*
X112742953Y-121364500D01*
X113092000Y-121364500D01*
X113092000Y-121564807D01*
X113117287Y-121691931D01*
X113166888Y-121811680D01*
X113238898Y-121919450D01*
X113330549Y-122011102D01*
X113438320Y-122083112D01*
X113558068Y-122132713D01*
X113685192Y-122158000D01*
X114635500Y-122158000D01*
X114800000Y-121993500D01*
X114800000Y-121200000D01*
X115200000Y-121200000D01*
X115200000Y-121993500D01*
X115364500Y-122158000D01*
X116314808Y-122158000D01*
X116441932Y-122132713D01*
X116561680Y-122083112D01*
X116669451Y-122011102D01*
X116761102Y-121919450D01*
X116833112Y-121811680D01*
X116882713Y-121691931D01*
X116908000Y-121564807D01*
X116908000Y-121364500D01*
X116743500Y-121200000D01*
X115200000Y-121200000D01*
X114800000Y-121200000D01*
X113256500Y-121200000D01*
X113092000Y-121364500D01*
X112742953Y-121364500D01*
X112793376Y-121164908D01*
X112816597Y-120710864D01*
X112776272Y-120435193D01*
X113092000Y-120435193D01*
X113092000Y-120635500D01*
X113256500Y-120800000D01*
X114800000Y-120800000D01*
X114800000Y-120006500D01*
X115200000Y-120006500D01*
X115200000Y-120800000D01*
X116743500Y-120800000D01*
X116908000Y-120635500D01*
X116908000Y-120435193D01*
X116882713Y-120308069D01*
X116833112Y-120188320D01*
X116761102Y-120080550D01*
X116669451Y-119988898D01*
X116561680Y-119916888D01*
X116441932Y-119867287D01*
X116314808Y-119842000D01*
X115364500Y-119842000D01*
X115200000Y-120006500D01*
X114800000Y-120006500D01*
X114635500Y-119842000D01*
X113685192Y-119842000D01*
X113558068Y-119867287D01*
X113438320Y-119916888D01*
X113330549Y-119988898D01*
X113238898Y-120080550D01*
X113166888Y-120188320D01*
X113117287Y-120308069D01*
X113092000Y-120435193D01*
X112776272Y-120435193D01*
X112750793Y-120261015D01*
X112598492Y-119832648D01*
X112500865Y-119650000D01*
X117500000Y-119650000D01*
X117529264Y-119647118D01*
X117557403Y-119638582D01*
X117583336Y-119624720D01*
X117606066Y-119606066D01*
X117624720Y-119583336D01*
X117638582Y-119557403D01*
X117647118Y-119529264D01*
X117650000Y-119500000D01*
X117650000Y-116250000D01*
X117647118Y-116220736D01*
X117638582Y-116192597D01*
X117624720Y-116166664D01*
X117606066Y-116143934D01*
X117583336Y-116125280D01*
X117557403Y-116111418D01*
X117529264Y-116102882D01*
X117500000Y-116100000D01*
X113900000Y-116100000D01*
X113900000Y-114812132D01*
X120312132Y-108400000D01*
X121500000Y-108400000D01*
X121529264Y-108397118D01*
X121557403Y-108388582D01*
X121583336Y-108374720D01*
X121606066Y-108356066D01*
X121624720Y-108333336D01*
X121638582Y-108307403D01*
X121647118Y-108279264D01*
X121650000Y-108250000D01*
X121650000Y-105482846D01*
X121660885Y-105471961D01*
X121749143Y-105723726D01*
X122031571Y-105843815D01*
X122332001Y-105906498D01*
X122638886Y-105909365D01*
X122940435Y-105852307D01*
X123225057Y-105737516D01*
X123250857Y-105723726D01*
X123339116Y-105471959D01*
X122500000Y-104632843D01*
X122485858Y-104646985D01*
X122203015Y-104364142D01*
X122217157Y-104350000D01*
X122203015Y-104335858D01*
X122485858Y-104053015D01*
X122500000Y-104067157D01*
X122514142Y-104053015D01*
X122796985Y-104335858D01*
X122782843Y-104350000D01*
X123621959Y-105189116D01*
X123873726Y-105100857D01*
X123993815Y-104818429D01*
X124056498Y-104517999D01*
X124056774Y-104488453D01*
X124304615Y-104589298D01*
X124355630Y-104592841D01*
X124650000Y-104481991D01*
X124650000Y-102450000D01*
X124630000Y-102450000D01*
X124630000Y-102050000D01*
X124650000Y-102050000D01*
X124650000Y-102030000D01*
X125050000Y-102030000D01*
X125050000Y-102050000D01*
X125070000Y-102050000D01*
X125070000Y-102450000D01*
X125050000Y-102450000D01*
X125050000Y-104481991D01*
X125344370Y-104592841D01*
X125395385Y-104589298D01*
X125600000Y-104506042D01*
X125600000Y-139600000D01*
X112248772Y-139600000D01*
X112280809Y-139567963D01*
X112158426Y-139445580D01*
X112486813Y-139266290D01*
X112682021Y-138855696D01*
X112793376Y-138414908D01*
X112795953Y-138364500D01*
X113092000Y-138364500D01*
X113092000Y-138564807D01*
X113117287Y-138691931D01*
X113166888Y-138811680D01*
X113238898Y-138919450D01*
X113330549Y-139011102D01*
X113438320Y-139083112D01*
X113558068Y-139132713D01*
X113685192Y-139158000D01*
X114635500Y-139158000D01*
X114800000Y-138993500D01*
X114800000Y-138200000D01*
X115200000Y-138200000D01*
X115200000Y-138993500D01*
X115364500Y-139158000D01*
X116314808Y-139158000D01*
X116441932Y-139132713D01*
X116561680Y-139083112D01*
X116669451Y-139011102D01*
X116761102Y-138919450D01*
X116833112Y-138811680D01*
X116882713Y-138691931D01*
X116908000Y-138564807D01*
X116908000Y-138364500D01*
X116743500Y-138200000D01*
X115200000Y-138200000D01*
X114800000Y-138200000D01*
X113256500Y-138200000D01*
X113092000Y-138364500D01*
X112795953Y-138364500D01*
X112816597Y-137960864D01*
X112750793Y-137511015D01*
X112622438Y-137150000D01*
X113192493Y-137150000D01*
X113166888Y-137188320D01*
X113117287Y-137308069D01*
X113092000Y-137435193D01*
X113092000Y-137635500D01*
X113256500Y-137800000D01*
X114800000Y-137800000D01*
X114800000Y-137780000D01*
X115200000Y-137780000D01*
X115200000Y-137800000D01*
X116743500Y-137800000D01*
X116908000Y-137635500D01*
X116908000Y-137435193D01*
X116882713Y-137308069D01*
X116833112Y-137188320D01*
X116807507Y-137150000D01*
X118000000Y-137150000D01*
X118029264Y-137147118D01*
X118057403Y-137138582D01*
X118083336Y-137124720D01*
X118106066Y-137106066D01*
X118124720Y-137083336D01*
X118138582Y-137057403D01*
X118147118Y-137029264D01*
X118150000Y-137000000D01*
X118150000Y-132000000D01*
X118147118Y-131970736D01*
X118138582Y-131942597D01*
X118124720Y-131916664D01*
X118106066Y-131893934D01*
X118083336Y-131875280D01*
X118057403Y-131861418D01*
X118029264Y-131852882D01*
X118000000Y-131850000D01*
X116900000Y-131850000D01*
X116900000Y-127250000D01*
X116897118Y-127220736D01*
X116888582Y-127192597D01*
X116874720Y-127166664D01*
X116856066Y-127143934D01*
X116833336Y-127125280D01*
X116807403Y-127111418D01*
X116779264Y-127102882D01*
X116750000Y-127100000D01*
X115000000Y-127100000D01*
X114970736Y-127102882D01*
X114942597Y-127111418D01*
X114916664Y-127125280D01*
X114893934Y-127143934D01*
X113437868Y-128600000D01*
X109015876Y-128600000D01*
X109204697Y-128530625D01*
X109329806Y-128239631D01*
X109395742Y-127929821D01*
X109399970Y-127613102D01*
X109342327Y-127301643D01*
X109225029Y-127007415D01*
X109204697Y-126969375D01*
X108947840Y-126875003D01*
X108072843Y-127750000D01*
X108086985Y-127764142D01*
X107804142Y-128046985D01*
X107790000Y-128032843D01*
X107775858Y-128046985D01*
X107493015Y-127764142D01*
X107507157Y-127750000D01*
X106632160Y-126875003D01*
X106375303Y-126969375D01*
X106250194Y-127260369D01*
X106184258Y-127570179D01*
X106180030Y-127886898D01*
X106237673Y-128198357D01*
X106354971Y-128492585D01*
X106375303Y-128530625D01*
X106564124Y-128600000D01*
X105750000Y-128600000D01*
X105720736Y-128602882D01*
X105692597Y-128611418D01*
X105666664Y-128625280D01*
X105643934Y-128643934D01*
X105625280Y-128666664D01*
X105611418Y-128692597D01*
X105602882Y-128720736D01*
X105600000Y-128750000D01*
X105600000Y-136750000D01*
X105602882Y-136779264D01*
X105611418Y-136807403D01*
X105625280Y-136833336D01*
X105643934Y-136856066D01*
X105666664Y-136874720D01*
X105692597Y-136888582D01*
X105720736Y-136897118D01*
X105750000Y-136900000D01*
X108500688Y-136900000D01*
X108317979Y-137284304D01*
X108206624Y-137725092D01*
X108183403Y-138179136D01*
X108249207Y-138628985D01*
X108401508Y-139057352D01*
X108513187Y-139266290D01*
X108841574Y-139445580D01*
X108719191Y-139567963D01*
X108751228Y-139600000D01*
X103650000Y-139600000D01*
X103650000Y-126592160D01*
X106915003Y-126592160D01*
X107790000Y-127467157D01*
X108664997Y-126592160D01*
X108663624Y-126588423D01*
X109124419Y-126588423D01*
X109303710Y-126916813D01*
X109714304Y-127112021D01*
X110155092Y-127223376D01*
X110609136Y-127246597D01*
X111058985Y-127180793D01*
X111487352Y-127028492D01*
X111696290Y-126916813D01*
X111875581Y-126588423D01*
X110500000Y-125212843D01*
X109124419Y-126588423D01*
X108663624Y-126588423D01*
X108570625Y-126335303D01*
X108279631Y-126210194D01*
X107969821Y-126144258D01*
X107653102Y-126140030D01*
X107341643Y-126197673D01*
X107047415Y-126314971D01*
X107009375Y-126335303D01*
X106915003Y-126592160D01*
X103650000Y-126592160D01*
X103650000Y-125039136D01*
X108183403Y-125039136D01*
X108249207Y-125488985D01*
X108401508Y-125917352D01*
X108513187Y-126126290D01*
X108841577Y-126305581D01*
X110217157Y-124930000D01*
X110782843Y-124930000D01*
X112158423Y-126305581D01*
X112486813Y-126126290D01*
X112682021Y-125715696D01*
X112793376Y-125274908D01*
X112816597Y-124820864D01*
X112750793Y-124371015D01*
X112598492Y-123942648D01*
X112486813Y-123733710D01*
X112158423Y-123554419D01*
X110782843Y-124930000D01*
X110217157Y-124930000D01*
X108841577Y-123554419D01*
X108513187Y-123733710D01*
X108317979Y-124144304D01*
X108206624Y-124585092D01*
X108183403Y-125039136D01*
X103650000Y-125039136D01*
X103650000Y-122478423D01*
X109124419Y-122478423D01*
X109303710Y-122806813D01*
X109438742Y-122871011D01*
X109303710Y-122943187D01*
X109124419Y-123271577D01*
X110500000Y-124647157D01*
X111875581Y-123271577D01*
X111696290Y-122943187D01*
X111561258Y-122878989D01*
X111696290Y-122806813D01*
X111875581Y-122478423D01*
X110500000Y-121102843D01*
X109124419Y-122478423D01*
X103650000Y-122478423D01*
X103650000Y-109342160D01*
X106915003Y-109342160D01*
X107790000Y-110217157D01*
X108664997Y-109342160D01*
X108663624Y-109338423D01*
X109124419Y-109338423D01*
X109303710Y-109666813D01*
X109714304Y-109862021D01*
X110155092Y-109973376D01*
X110609136Y-109996597D01*
X111058985Y-109930793D01*
X111487352Y-109778492D01*
X111696290Y-109666813D01*
X111875581Y-109338423D01*
X110500000Y-107962843D01*
X109124419Y-109338423D01*
X108663624Y-109338423D01*
X108570625Y-109085303D01*
X108279631Y-108960194D01*
X107969821Y-108894258D01*
X107653102Y-108890030D01*
X107341643Y-108947673D01*
X107047415Y-109064971D01*
X107009375Y-109085303D01*
X106915003Y-109342160D01*
X103650000Y-109342160D01*
X103650000Y-107789136D01*
X108183403Y-107789136D01*
X108249207Y-108238985D01*
X108401508Y-108667352D01*
X108513187Y-108876290D01*
X108841577Y-109055581D01*
X110217157Y-107680000D01*
X110782843Y-107680000D01*
X112158423Y-109055581D01*
X112486813Y-108876290D01*
X112682021Y-108465696D01*
X112793376Y-108024908D01*
X112816597Y-107570864D01*
X112750793Y-107121015D01*
X112598492Y-106692648D01*
X112486813Y-106483710D01*
X112158423Y-106304419D01*
X110782843Y-107680000D01*
X110217157Y-107680000D01*
X108841577Y-106304419D01*
X108513187Y-106483710D01*
X108317979Y-106894304D01*
X108206624Y-107335092D01*
X108183403Y-107789136D01*
X103650000Y-107789136D01*
X103650000Y-106021577D01*
X109124419Y-106021577D01*
X110500000Y-107397157D01*
X111875581Y-106021577D01*
X111696290Y-105693187D01*
X111285696Y-105497979D01*
X110844908Y-105386624D01*
X110390864Y-105363403D01*
X109941015Y-105429207D01*
X109512648Y-105581508D01*
X109303710Y-105693187D01*
X109124419Y-106021577D01*
X103650000Y-106021577D01*
X103650000Y-102450000D01*
X111242000Y-102450000D01*
X111242000Y-102950000D01*
X111317680Y-103318389D01*
X111463775Y-103664935D01*
X111674670Y-103976321D01*
X111942261Y-104240580D01*
X112256265Y-104447557D01*
X112604615Y-104589298D01*
X112655630Y-104592841D01*
X112950000Y-104481991D01*
X112950000Y-102450000D01*
X111242000Y-102450000D01*
X103650000Y-102450000D01*
X103650000Y-100400000D01*
X111799908Y-100400000D01*
X111674670Y-100523679D01*
G36*
X110796985Y-138055858D02*
X110782843Y-138070000D01*
X110796985Y-138084142D01*
X110514142Y-138366985D01*
X110500000Y-138352843D01*
X110485858Y-138366985D01*
X110203015Y-138084142D01*
X110217157Y-138070000D01*
X110203015Y-138055858D01*
X110485858Y-137773015D01*
X110500000Y-137787157D01*
X110514142Y-137773015D01*
X110796985Y-138055858D01*
X110796985Y-138055858D01*
G37*
X110796985Y-138055858D02*
X110782843Y-138070000D01*
X110796985Y-138084142D01*
X110514142Y-138366985D01*
X110500000Y-138352843D01*
X110485858Y-138366985D01*
X110203015Y-138084142D01*
X110217157Y-138070000D01*
X110203015Y-138055858D01*
X110485858Y-137773015D01*
X110500000Y-137787157D01*
X110514142Y-137773015D01*
X110796985Y-138055858D01*
G36*
X123374670Y-100523679D02*
X123163775Y-100835065D01*
X123017680Y-101181611D01*
X122942000Y-101550000D01*
X122942000Y-101621960D01*
X122877441Y-101454876D01*
X122837501Y-101380153D01*
X122565348Y-101267494D01*
X121582843Y-102250000D01*
X121596985Y-102264142D01*
X121314142Y-102546985D01*
X121300000Y-102532843D01*
X121285858Y-102546985D01*
X121003015Y-102264142D01*
X121017157Y-102250000D01*
X120034652Y-101267494D01*
X119762499Y-101380153D01*
X119622342Y-101696819D01*
X119546658Y-102034743D01*
X119538353Y-102380938D01*
X119597748Y-102722103D01*
X119647166Y-102850000D01*
X118356936Y-102850000D01*
X118377658Y-102803181D01*
X118453342Y-102465257D01*
X118461647Y-102119062D01*
X118402252Y-101777897D01*
X118277441Y-101454876D01*
X118237501Y-101380153D01*
X117965348Y-101267494D01*
X116982843Y-102250000D01*
X116996985Y-102264142D01*
X116714142Y-102546985D01*
X116700000Y-102532843D01*
X116685858Y-102546985D01*
X116403015Y-102264142D01*
X116417157Y-102250000D01*
X115434652Y-101267494D01*
X115162499Y-101380153D01*
X115058000Y-101616255D01*
X115058000Y-101550000D01*
X114982320Y-101181611D01*
X114899288Y-100984652D01*
X115717494Y-100984652D01*
X116700000Y-101967157D01*
X117682506Y-100984652D01*
X120317494Y-100984652D01*
X121300000Y-101967157D01*
X122282506Y-100984652D01*
X122169847Y-100712499D01*
X121853181Y-100572342D01*
X121515257Y-100496658D01*
X121169062Y-100488353D01*
X120827897Y-100547748D01*
X120504876Y-100672559D01*
X120430153Y-100712499D01*
X120317494Y-100984652D01*
X117682506Y-100984652D01*
X117569847Y-100712499D01*
X117253181Y-100572342D01*
X116915257Y-100496658D01*
X116569062Y-100488353D01*
X116227897Y-100547748D01*
X115904876Y-100672559D01*
X115830153Y-100712499D01*
X115717494Y-100984652D01*
X114899288Y-100984652D01*
X114836225Y-100835065D01*
X114625330Y-100523679D01*
X114500092Y-100400000D01*
X123499908Y-100400000D01*
X123374670Y-100523679D01*
X123374670Y-100523679D01*
G37*
X123374670Y-100523679D02*
X123163775Y-100835065D01*
X123017680Y-101181611D01*
X122942000Y-101550000D01*
X122942000Y-101621960D01*
X122877441Y-101454876D01*
X122837501Y-101380153D01*
X122565348Y-101267494D01*
X121582843Y-102250000D01*
X121596985Y-102264142D01*
X121314142Y-102546985D01*
X121300000Y-102532843D01*
X121285858Y-102546985D01*
X121003015Y-102264142D01*
X121017157Y-102250000D01*
X120034652Y-101267494D01*
X119762499Y-101380153D01*
X119622342Y-101696819D01*
X119546658Y-102034743D01*
X119538353Y-102380938D01*
X119597748Y-102722103D01*
X119647166Y-102850000D01*
X118356936Y-102850000D01*
X118377658Y-102803181D01*
X118453342Y-102465257D01*
X118461647Y-102119062D01*
X118402252Y-101777897D01*
X118277441Y-101454876D01*
X118237501Y-101380153D01*
X117965348Y-101267494D01*
X116982843Y-102250000D01*
X116996985Y-102264142D01*
X116714142Y-102546985D01*
X116700000Y-102532843D01*
X116685858Y-102546985D01*
X116403015Y-102264142D01*
X116417157Y-102250000D01*
X115434652Y-101267494D01*
X115162499Y-101380153D01*
X115058000Y-101616255D01*
X115058000Y-101550000D01*
X114982320Y-101181611D01*
X114899288Y-100984652D01*
X115717494Y-100984652D01*
X116700000Y-101967157D01*
X117682506Y-100984652D01*
X120317494Y-100984652D01*
X121300000Y-101967157D01*
X122282506Y-100984652D01*
X122169847Y-100712499D01*
X121853181Y-100572342D01*
X121515257Y-100496658D01*
X121169062Y-100488353D01*
X120827897Y-100547748D01*
X120504876Y-100672559D01*
X120430153Y-100712499D01*
X120317494Y-100984652D01*
X117682506Y-100984652D01*
X117569847Y-100712499D01*
X117253181Y-100572342D01*
X116915257Y-100496658D01*
X116569062Y-100488353D01*
X116227897Y-100547748D01*
X115904876Y-100672559D01*
X115830153Y-100712499D01*
X115717494Y-100984652D01*
X114899288Y-100984652D01*
X114836225Y-100835065D01*
X114625330Y-100523679D01*
X114500092Y-100400000D01*
X123499908Y-100400000D01*
X123374670Y-100523679D01*
G04 #@! TD*
M02*
