G04 #@! TF.GenerationSoftware,KiCad,Pcbnew,(5.0.0)*
G04 #@! TF.CreationDate,2018-10-08T17:29:22-04:00*
G04 #@! TF.ProjectId,m3_usb_split,6D335F7573625F73706C69742E6B6963,0*
G04 #@! TF.SameCoordinates,Original*
G04 #@! TF.FileFunction,Soldermask,Top*
G04 #@! TF.FilePolarity,Negative*
%FSLAX46Y46*%
G04 Gerber Fmt 4.6, Leading zero omitted, Abs format (unit mm)*
G04 Created by KiCad (PCBNEW (5.0.0)) date 10/08/18 17:29:22*
%MOMM*%
%LPD*%
G01*
G04 APERTURE LIST*
%ADD10C,2.300000*%
%ADD11C,3.700000*%
%ADD12O,2.900000X3.900000*%
%ADD13C,2.600000*%
%ADD14C,2.200000*%
%ADD15C,1.500000*%
G04 APERTURE END LIST*
D10*
G04 #@! TO.C,J3*
X107790000Y-127750000D03*
X107800000Y-130250000D03*
X107775000Y-132750000D03*
X107790000Y-135250000D03*
D11*
X110500000Y-124930000D03*
X110500000Y-138070000D03*
G04 #@! TD*
D12*
G04 #@! TO.C,J1*
X124850000Y-102250000D03*
X113150000Y-102250000D03*
D13*
X121300000Y-102250000D03*
X116700000Y-102250000D03*
D14*
X122500000Y-104350000D03*
X120000000Y-104350000D03*
X118000000Y-104350000D03*
X115500000Y-104350000D03*
G04 #@! TD*
D11*
G04 #@! TO.C,J2*
X110500000Y-120820000D03*
X110500000Y-107680000D03*
D10*
X107790000Y-118000000D03*
X107775000Y-115500000D03*
X107800000Y-113000000D03*
X107790000Y-110500000D03*
G04 #@! TD*
D15*
X124750000Y-106250000D03*
X121500000Y-109500000D03*
X116250000Y-114750000D03*
X117750000Y-139000000D03*
X118250000Y-126500000D03*
X114000000Y-126500000D03*
X114000000Y-123250000D03*
X118500000Y-123250000D03*
X118500000Y-120250000D03*
X118500000Y-116500000D03*
X124500000Y-116500000D03*
X124500000Y-120000000D03*
X124500000Y-124000000D03*
X124500000Y-128000000D03*
X124500000Y-130500000D03*
X124500000Y-133500000D03*
X124500000Y-136250000D03*
X124500000Y-139000000D03*
X121000000Y-139000000D03*
X120000000Y-106750000D03*
X116250000Y-106750000D03*
M02*
