G04 #@! TF.GenerationSoftware,KiCad,Pcbnew,(5.0.0)*
G04 #@! TF.CreationDate,2018-10-08T17:29:21-04:00*
G04 #@! TF.ProjectId,m3_usb_split,6D335F7573625F73706C69742E6B6963,0*
G04 #@! TF.SameCoordinates,Original*
G04 #@! TF.FileFunction,Legend,Top*
G04 #@! TF.FilePolarity,Positive*
%FSLAX46Y46*%
G04 Gerber Fmt 4.6, Leading zero omitted, Abs format (unit mm)*
G04 Created by KiCad (PCBNEW (5.0.0)) date 10/08/18 17:29:21*
%MOMM*%
%LPD*%
G01*
G04 APERTURE LIST*
%ADD10C,0.300000*%
%ADD11C,0.100000*%
%ADD12C,0.150000*%
G04 APERTURE END LIST*
D10*
X104252380Y-102463095D02*
X104252380Y-101163095D01*
X104685714Y-102091666D01*
X105119047Y-101163095D01*
X105119047Y-102463095D01*
X105614285Y-101163095D02*
X106419047Y-101163095D01*
X105985714Y-101658333D01*
X106171428Y-101658333D01*
X106295238Y-101720238D01*
X106357142Y-101782142D01*
X106419047Y-101905952D01*
X106419047Y-102215476D01*
X106357142Y-102339285D01*
X106295238Y-102401190D01*
X106171428Y-102463095D01*
X105800000Y-102463095D01*
X105676190Y-102401190D01*
X105614285Y-102339285D01*
X107966666Y-101163095D02*
X107966666Y-102215476D01*
X108028571Y-102339285D01*
X108090476Y-102401190D01*
X108214285Y-102463095D01*
X108461904Y-102463095D01*
X108585714Y-102401190D01*
X108647619Y-102339285D01*
X108709523Y-102215476D01*
X108709523Y-101163095D01*
X109266666Y-102401190D02*
X109452380Y-102463095D01*
X109761904Y-102463095D01*
X109885714Y-102401190D01*
X109947619Y-102339285D01*
X110009523Y-102215476D01*
X110009523Y-102091666D01*
X109947619Y-101967857D01*
X109885714Y-101905952D01*
X109761904Y-101844047D01*
X109514285Y-101782142D01*
X109390476Y-101720238D01*
X109328571Y-101658333D01*
X109266666Y-101534523D01*
X109266666Y-101410714D01*
X109328571Y-101286904D01*
X109390476Y-101225000D01*
X109514285Y-101163095D01*
X109823809Y-101163095D01*
X110009523Y-101225000D01*
X111000000Y-101782142D02*
X111185714Y-101844047D01*
X111247619Y-101905952D01*
X111309523Y-102029761D01*
X111309523Y-102215476D01*
X111247619Y-102339285D01*
X111185714Y-102401190D01*
X111061904Y-102463095D01*
X110566666Y-102463095D01*
X110566666Y-101163095D01*
X111000000Y-101163095D01*
X111123809Y-101225000D01*
X111185714Y-101286904D01*
X111247619Y-101410714D01*
X111247619Y-101534523D01*
X111185714Y-101658333D01*
X111123809Y-101720238D01*
X111000000Y-101782142D01*
X110566666Y-101782142D01*
X103664285Y-104651190D02*
X103850000Y-104713095D01*
X104159523Y-104713095D01*
X104283333Y-104651190D01*
X104345238Y-104589285D01*
X104407142Y-104465476D01*
X104407142Y-104341666D01*
X104345238Y-104217857D01*
X104283333Y-104155952D01*
X104159523Y-104094047D01*
X103911904Y-104032142D01*
X103788095Y-103970238D01*
X103726190Y-103908333D01*
X103664285Y-103784523D01*
X103664285Y-103660714D01*
X103726190Y-103536904D01*
X103788095Y-103475000D01*
X103911904Y-103413095D01*
X104221428Y-103413095D01*
X104407142Y-103475000D01*
X104964285Y-104713095D02*
X104964285Y-103413095D01*
X105459523Y-103413095D01*
X105583333Y-103475000D01*
X105645238Y-103536904D01*
X105707142Y-103660714D01*
X105707142Y-103846428D01*
X105645238Y-103970238D01*
X105583333Y-104032142D01*
X105459523Y-104094047D01*
X104964285Y-104094047D01*
X106883333Y-104713095D02*
X106264285Y-104713095D01*
X106264285Y-103413095D01*
X107316666Y-104713095D02*
X107316666Y-103413095D01*
X107750000Y-103413095D02*
X108492857Y-103413095D01*
X108121428Y-104713095D02*
X108121428Y-103413095D01*
X108740476Y-103413095D02*
X109483333Y-103413095D01*
X109111904Y-104713095D02*
X109111904Y-103413095D01*
X109916666Y-104032142D02*
X110350000Y-104032142D01*
X110535714Y-104713095D02*
X109916666Y-104713095D01*
X109916666Y-103413095D01*
X110535714Y-103413095D01*
X111835714Y-104713095D02*
X111402380Y-104094047D01*
X111092857Y-104713095D02*
X111092857Y-103413095D01*
X111588095Y-103413095D01*
X111711904Y-103475000D01*
X111773809Y-103536904D01*
X111835714Y-103660714D01*
X111835714Y-103846428D01*
X111773809Y-103970238D01*
X111711904Y-104032142D01*
X111588095Y-104094047D01*
X111092857Y-104094047D01*
X105428571Y-138714285D02*
X103928571Y-138714285D01*
X103928571Y-138142857D01*
X104000000Y-138000000D01*
X104071428Y-137928571D01*
X104214285Y-137857142D01*
X104428571Y-137857142D01*
X104571428Y-137928571D01*
X104642857Y-138000000D01*
X104714285Y-138142857D01*
X104714285Y-138714285D01*
X103928571Y-136928571D02*
X103928571Y-136642857D01*
X104000000Y-136500000D01*
X104142857Y-136357142D01*
X104428571Y-136285714D01*
X104928571Y-136285714D01*
X105214285Y-136357142D01*
X105357142Y-136500000D01*
X105428571Y-136642857D01*
X105428571Y-136928571D01*
X105357142Y-137071428D01*
X105214285Y-137214285D01*
X104928571Y-137285714D01*
X104428571Y-137285714D01*
X104142857Y-137214285D01*
X104000000Y-137071428D01*
X103928571Y-136928571D01*
X103928571Y-135785714D02*
X105428571Y-135428571D01*
X104357142Y-135142857D01*
X105428571Y-134857142D01*
X103928571Y-134500000D01*
X104642857Y-133928571D02*
X104642857Y-133428571D01*
X105428571Y-133214285D02*
X105428571Y-133928571D01*
X103928571Y-133928571D01*
X103928571Y-133214285D01*
X105428571Y-131714285D02*
X104714285Y-132214285D01*
X105428571Y-132571428D02*
X103928571Y-132571428D01*
X103928571Y-132000000D01*
X104000000Y-131857142D01*
X104071428Y-131785714D01*
X104214285Y-131714285D01*
X104428571Y-131714285D01*
X104571428Y-131785714D01*
X104642857Y-131857142D01*
X104714285Y-132000000D01*
X104714285Y-132571428D01*
X105428571Y-117500000D02*
X103928571Y-117500000D01*
X103928571Y-117142857D01*
X104000000Y-116928571D01*
X104142857Y-116785714D01*
X104285714Y-116714285D01*
X104571428Y-116642857D01*
X104785714Y-116642857D01*
X105071428Y-116714285D01*
X105214285Y-116785714D01*
X105357142Y-116928571D01*
X105428571Y-117142857D01*
X105428571Y-117500000D01*
X105000000Y-116071428D02*
X105000000Y-115357142D01*
X105428571Y-116214285D02*
X103928571Y-115714285D01*
X105428571Y-115214285D01*
X103928571Y-114928571D02*
X103928571Y-114071428D01*
X105428571Y-114500000D02*
X103928571Y-114500000D01*
X105000000Y-113642857D02*
X105000000Y-112928571D01*
X105428571Y-113785714D02*
X103928571Y-113285714D01*
X105428571Y-112785714D01*
D11*
G04 #@! TO.C,J3*
X107575000Y-124825000D02*
X108300000Y-124825000D01*
X107575000Y-125775000D02*
X107575000Y-124825000D01*
X107575000Y-138175000D02*
X108375000Y-138175000D01*
X107575000Y-137150000D02*
X107575000Y-138175000D01*
X127275000Y-124825000D02*
X127275000Y-125525000D01*
X126625000Y-124825000D02*
X127275000Y-124825000D01*
X127275000Y-138175000D02*
X126600000Y-138175000D01*
X127275000Y-137200000D02*
X127275000Y-138175000D01*
G04 #@! TO.C,J1*
X112875000Y-99700000D02*
X112875000Y-98750000D01*
X125125000Y-100450000D02*
X125125000Y-98675000D01*
X112875000Y-100450000D02*
X112875000Y-99675000D01*
X124425000Y-84325000D02*
X125125000Y-84325000D01*
X125125000Y-84325000D02*
X125125000Y-84875000D01*
X113600000Y-84325000D02*
X112875000Y-84325000D01*
X112875000Y-84325000D02*
X112875000Y-84925000D01*
G04 #@! TO.C,J2*
X127275000Y-119950000D02*
X127275000Y-120925000D01*
X127275000Y-120925000D02*
X126600000Y-120925000D01*
X126625000Y-107575000D02*
X127275000Y-107575000D01*
X127275000Y-107575000D02*
X127275000Y-108275000D01*
X107575000Y-119900000D02*
X107575000Y-120925000D01*
X107575000Y-120925000D02*
X108375000Y-120925000D01*
X107575000Y-108525000D02*
X107575000Y-107575000D01*
X107575000Y-107575000D02*
X108300000Y-107575000D01*
G04 #@! TO.C,J3*
D12*
X104202380Y-129833333D02*
X104916666Y-129833333D01*
X105059523Y-129880952D01*
X105154761Y-129976190D01*
X105202380Y-130119047D01*
X105202380Y-130214285D01*
X104202380Y-129452380D02*
X104202380Y-128833333D01*
X104583333Y-129166666D01*
X104583333Y-129023809D01*
X104630952Y-128928571D01*
X104678571Y-128880952D01*
X104773809Y-128833333D01*
X105011904Y-128833333D01*
X105107142Y-128880952D01*
X105154761Y-128928571D01*
X105202380Y-129023809D01*
X105202380Y-129309523D01*
X105154761Y-129404761D01*
X105107142Y-129452380D01*
G04 #@! TO.C,J1*
X124916666Y-104202380D02*
X124916666Y-104916666D01*
X124869047Y-105059523D01*
X124773809Y-105154761D01*
X124630952Y-105202380D01*
X124535714Y-105202380D01*
X125916666Y-105202380D02*
X125345238Y-105202380D01*
X125630952Y-105202380D02*
X125630952Y-104202380D01*
X125535714Y-104345238D01*
X125440476Y-104440476D01*
X125345238Y-104488095D01*
G04 #@! TO.C,J2*
X104202380Y-120083333D02*
X104916666Y-120083333D01*
X105059523Y-120130952D01*
X105154761Y-120226190D01*
X105202380Y-120369047D01*
X105202380Y-120464285D01*
X104297619Y-119654761D02*
X104250000Y-119607142D01*
X104202380Y-119511904D01*
X104202380Y-119273809D01*
X104250000Y-119178571D01*
X104297619Y-119130952D01*
X104392857Y-119083333D01*
X104488095Y-119083333D01*
X104630952Y-119130952D01*
X105202380Y-119702380D01*
X105202380Y-119083333D01*
G04 #@! TD*
M02*
