G04 #@! TF.GenerationSoftware,KiCad,Pcbnew,(5.0.0)*
G04 #@! TF.CreationDate,2018-10-08T17:29:22-04:00*
G04 #@! TF.ProjectId,m3_usb_split,6D335F7573625F73706C69742E6B6963,0*
G04 #@! TF.SameCoordinates,Original*
G04 #@! TF.FileFunction,Other,Fab,Top*
%FSLAX46Y46*%
G04 Gerber Fmt 4.6, Leading zero omitted, Abs format (unit mm)*
G04 Created by KiCad (PCBNEW (5.0.0)) date 10/08/18 17:29:22*
%MOMM*%
%LPD*%
G01*
G04 APERTURE LIST*
%ADD10C,0.100000*%
%ADD11C,0.150000*%
G04 APERTURE END LIST*
D10*
G04 #@! TO.C,J3*
X107690000Y-138050000D02*
X107690000Y-124950000D01*
X107690000Y-124950000D02*
X127160000Y-124950000D01*
X107690000Y-138050000D02*
X127160000Y-138050000D01*
X127160000Y-138050000D02*
X127160000Y-124950000D01*
G04 #@! TO.C,J1*
X125000000Y-103250000D02*
X113000000Y-103250000D01*
X125000000Y-84450000D02*
X113000000Y-84450000D01*
X113000000Y-103250000D02*
X113000000Y-84450000D01*
X125000000Y-103250000D02*
X125000000Y-84450000D01*
G04 #@! TO.C,J2*
X127160000Y-120800000D02*
X127160000Y-107700000D01*
X107690000Y-120800000D02*
X127160000Y-120800000D01*
X107690000Y-107700000D02*
X127160000Y-107700000D01*
X107690000Y-120800000D02*
X107690000Y-107700000D01*
G04 #@! TD*
G04 #@! TO.C,J3*
D11*
X127877380Y-136875000D02*
X128686904Y-136875000D01*
X128782142Y-136827380D01*
X128829761Y-136779761D01*
X128877380Y-136684523D01*
X128877380Y-136494047D01*
X128829761Y-136398809D01*
X128782142Y-136351190D01*
X128686904Y-136303571D01*
X127877380Y-136303571D01*
X128353571Y-135827380D02*
X128353571Y-135494047D01*
X128877380Y-135351190D02*
X128877380Y-135827380D01*
X127877380Y-135827380D01*
X127877380Y-135351190D01*
X127972619Y-134970238D02*
X127925000Y-134922619D01*
X127877380Y-134827380D01*
X127877380Y-134589285D01*
X127925000Y-134494047D01*
X127972619Y-134446428D01*
X128067857Y-134398809D01*
X128163095Y-134398809D01*
X128305952Y-134446428D01*
X128877380Y-135017857D01*
X128877380Y-134398809D01*
X127877380Y-134065476D02*
X127877380Y-133398809D01*
X128877380Y-133827380D01*
X128591666Y-133065476D02*
X128591666Y-132589285D01*
X128877380Y-133160714D02*
X127877380Y-132827380D01*
X128877380Y-132494047D01*
X128782142Y-131589285D02*
X128829761Y-131636904D01*
X128877380Y-131779761D01*
X128877380Y-131875000D01*
X128829761Y-132017857D01*
X128734523Y-132113095D01*
X128639285Y-132160714D01*
X128448809Y-132208333D01*
X128305952Y-132208333D01*
X128115476Y-132160714D01*
X128020238Y-132113095D01*
X127925000Y-132017857D01*
X127877380Y-131875000D01*
X127877380Y-131779761D01*
X127925000Y-131636904D01*
X127972619Y-131589285D01*
X127877380Y-130684523D02*
X127877380Y-131160714D01*
X128353571Y-131208333D01*
X128305952Y-131160714D01*
X128258333Y-131065476D01*
X128258333Y-130827380D01*
X128305952Y-130732142D01*
X128353571Y-130684523D01*
X128448809Y-130636904D01*
X128686904Y-130636904D01*
X128782142Y-130684523D01*
X128829761Y-130732142D01*
X128877380Y-130827380D01*
X128877380Y-131065476D01*
X128829761Y-131160714D01*
X128782142Y-131208333D01*
X128210714Y-129779761D02*
X128877380Y-129779761D01*
X127829761Y-130017857D02*
X128544047Y-130255952D01*
X128544047Y-129636904D01*
X128877380Y-128732142D02*
X128877380Y-129303571D01*
X128877380Y-129017857D02*
X127877380Y-129017857D01*
X128020238Y-129113095D01*
X128115476Y-129208333D01*
X128163095Y-129303571D01*
X127877380Y-128113095D02*
X127877380Y-128017857D01*
X127925000Y-127922619D01*
X127972619Y-127875000D01*
X128067857Y-127827380D01*
X128258333Y-127779761D01*
X128496428Y-127779761D01*
X128686904Y-127827380D01*
X128782142Y-127875000D01*
X128829761Y-127922619D01*
X128877380Y-128017857D01*
X128877380Y-128113095D01*
X128829761Y-128208333D01*
X128782142Y-128255952D01*
X128686904Y-128303571D01*
X128496428Y-128351190D01*
X128258333Y-128351190D01*
X128067857Y-128303571D01*
X127972619Y-128255952D01*
X127925000Y-128208333D01*
X127877380Y-128113095D01*
X127877380Y-127160714D02*
X127877380Y-127065476D01*
X127925000Y-126970238D01*
X127972619Y-126922619D01*
X128067857Y-126875000D01*
X128258333Y-126827380D01*
X128496428Y-126827380D01*
X128686904Y-126875000D01*
X128782142Y-126922619D01*
X128829761Y-126970238D01*
X128877380Y-127065476D01*
X128877380Y-127160714D01*
X128829761Y-127255952D01*
X128782142Y-127303571D01*
X128686904Y-127351190D01*
X128496428Y-127398809D01*
X128258333Y-127398809D01*
X128067857Y-127351190D01*
X127972619Y-127303571D01*
X127925000Y-127255952D01*
X127877380Y-127160714D01*
X110927380Y-131858333D02*
X111641666Y-131858333D01*
X111784523Y-131905952D01*
X111879761Y-132001190D01*
X111927380Y-132144047D01*
X111927380Y-132239285D01*
X110927380Y-131477380D02*
X110927380Y-130858333D01*
X111308333Y-131191666D01*
X111308333Y-131048809D01*
X111355952Y-130953571D01*
X111403571Y-130905952D01*
X111498809Y-130858333D01*
X111736904Y-130858333D01*
X111832142Y-130905952D01*
X111879761Y-130953571D01*
X111927380Y-131048809D01*
X111927380Y-131334523D01*
X111879761Y-131429761D01*
X111832142Y-131477380D01*
G04 #@! TO.C,J1*
X113297619Y-82927380D02*
X113297619Y-83736904D01*
X113345238Y-83832142D01*
X113392857Y-83879761D01*
X113488095Y-83927380D01*
X113678571Y-83927380D01*
X113773809Y-83879761D01*
X113821428Y-83832142D01*
X113869047Y-83736904D01*
X113869047Y-82927380D01*
X114345238Y-83927380D02*
X114345238Y-82927380D01*
X114726190Y-82927380D01*
X114821428Y-82975000D01*
X114869047Y-83022619D01*
X114916666Y-83117857D01*
X114916666Y-83260714D01*
X114869047Y-83355952D01*
X114821428Y-83403571D01*
X114726190Y-83451190D01*
X114345238Y-83451190D01*
X115297619Y-83022619D02*
X115345238Y-82975000D01*
X115440476Y-82927380D01*
X115678571Y-82927380D01*
X115773809Y-82975000D01*
X115821428Y-83022619D01*
X115869047Y-83117857D01*
X115869047Y-83213095D01*
X115821428Y-83355952D01*
X115250000Y-83927380D01*
X115869047Y-83927380D01*
X116297619Y-83546428D02*
X117059523Y-83546428D01*
X117488095Y-83641666D02*
X117964285Y-83641666D01*
X117392857Y-83927380D02*
X117726190Y-82927380D01*
X118059523Y-83927380D01*
X118392857Y-83927380D02*
X118392857Y-82927380D01*
X118392857Y-83403571D02*
X118964285Y-83403571D01*
X118964285Y-83927380D02*
X118964285Y-82927380D01*
X119440476Y-83546428D02*
X120202380Y-83546428D01*
X121202380Y-83927380D02*
X120630952Y-83927380D01*
X120916666Y-83927380D02*
X120916666Y-82927380D01*
X120821428Y-83070238D01*
X120726190Y-83165476D01*
X120630952Y-83213095D01*
X121630952Y-83546428D02*
X122392857Y-83546428D01*
X122726190Y-82927380D02*
X123297619Y-82927380D01*
X123011904Y-83927380D02*
X123011904Y-82927380D01*
X123630952Y-83927380D02*
X123630952Y-82927380D01*
X123630952Y-83403571D02*
X124202380Y-83403571D01*
X124202380Y-83927380D02*
X124202380Y-82927380D01*
X118641666Y-99877380D02*
X118641666Y-100591666D01*
X118594047Y-100734523D01*
X118498809Y-100829761D01*
X118355952Y-100877380D01*
X118260714Y-100877380D01*
X119641666Y-100877380D02*
X119070238Y-100877380D01*
X119355952Y-100877380D02*
X119355952Y-99877380D01*
X119260714Y-100020238D01*
X119165476Y-100115476D01*
X119070238Y-100163095D01*
G04 #@! TO.C,J2*
X127877380Y-119625000D02*
X128686904Y-119625000D01*
X128782142Y-119577380D01*
X128829761Y-119529761D01*
X128877380Y-119434523D01*
X128877380Y-119244047D01*
X128829761Y-119148809D01*
X128782142Y-119101190D01*
X128686904Y-119053571D01*
X127877380Y-119053571D01*
X128353571Y-118577380D02*
X128353571Y-118244047D01*
X128877380Y-118101190D02*
X128877380Y-118577380D01*
X127877380Y-118577380D01*
X127877380Y-118101190D01*
X127972619Y-117720238D02*
X127925000Y-117672619D01*
X127877380Y-117577380D01*
X127877380Y-117339285D01*
X127925000Y-117244047D01*
X127972619Y-117196428D01*
X128067857Y-117148809D01*
X128163095Y-117148809D01*
X128305952Y-117196428D01*
X128877380Y-117767857D01*
X128877380Y-117148809D01*
X127877380Y-116815476D02*
X127877380Y-116148809D01*
X128877380Y-116577380D01*
X128591666Y-115815476D02*
X128591666Y-115339285D01*
X128877380Y-115910714D02*
X127877380Y-115577380D01*
X128877380Y-115244047D01*
X128782142Y-114339285D02*
X128829761Y-114386904D01*
X128877380Y-114529761D01*
X128877380Y-114625000D01*
X128829761Y-114767857D01*
X128734523Y-114863095D01*
X128639285Y-114910714D01*
X128448809Y-114958333D01*
X128305952Y-114958333D01*
X128115476Y-114910714D01*
X128020238Y-114863095D01*
X127925000Y-114767857D01*
X127877380Y-114625000D01*
X127877380Y-114529761D01*
X127925000Y-114386904D01*
X127972619Y-114339285D01*
X127877380Y-113434523D02*
X127877380Y-113910714D01*
X128353571Y-113958333D01*
X128305952Y-113910714D01*
X128258333Y-113815476D01*
X128258333Y-113577380D01*
X128305952Y-113482142D01*
X128353571Y-113434523D01*
X128448809Y-113386904D01*
X128686904Y-113386904D01*
X128782142Y-113434523D01*
X128829761Y-113482142D01*
X128877380Y-113577380D01*
X128877380Y-113815476D01*
X128829761Y-113910714D01*
X128782142Y-113958333D01*
X128210714Y-112529761D02*
X128877380Y-112529761D01*
X127829761Y-112767857D02*
X128544047Y-113005952D01*
X128544047Y-112386904D01*
X128877380Y-111482142D02*
X128877380Y-112053571D01*
X128877380Y-111767857D02*
X127877380Y-111767857D01*
X128020238Y-111863095D01*
X128115476Y-111958333D01*
X128163095Y-112053571D01*
X127877380Y-110863095D02*
X127877380Y-110767857D01*
X127925000Y-110672619D01*
X127972619Y-110625000D01*
X128067857Y-110577380D01*
X128258333Y-110529761D01*
X128496428Y-110529761D01*
X128686904Y-110577380D01*
X128782142Y-110625000D01*
X128829761Y-110672619D01*
X128877380Y-110767857D01*
X128877380Y-110863095D01*
X128829761Y-110958333D01*
X128782142Y-111005952D01*
X128686904Y-111053571D01*
X128496428Y-111101190D01*
X128258333Y-111101190D01*
X128067857Y-111053571D01*
X127972619Y-111005952D01*
X127925000Y-110958333D01*
X127877380Y-110863095D01*
X127877380Y-109910714D02*
X127877380Y-109815476D01*
X127925000Y-109720238D01*
X127972619Y-109672619D01*
X128067857Y-109625000D01*
X128258333Y-109577380D01*
X128496428Y-109577380D01*
X128686904Y-109625000D01*
X128782142Y-109672619D01*
X128829761Y-109720238D01*
X128877380Y-109815476D01*
X128877380Y-109910714D01*
X128829761Y-110005952D01*
X128782142Y-110053571D01*
X128686904Y-110101190D01*
X128496428Y-110148809D01*
X128258333Y-110148809D01*
X128067857Y-110101190D01*
X127972619Y-110053571D01*
X127925000Y-110005952D01*
X127877380Y-109910714D01*
X110927380Y-114608333D02*
X111641666Y-114608333D01*
X111784523Y-114655952D01*
X111879761Y-114751190D01*
X111927380Y-114894047D01*
X111927380Y-114989285D01*
X111022619Y-114179761D02*
X110975000Y-114132142D01*
X110927380Y-114036904D01*
X110927380Y-113798809D01*
X110975000Y-113703571D01*
X111022619Y-113655952D01*
X111117857Y-113608333D01*
X111213095Y-113608333D01*
X111355952Y-113655952D01*
X111927380Y-114227380D01*
X111927380Y-113608333D01*
G04 #@! TD*
M02*
