G04 #@! TF.GenerationSoftware,KiCad,Pcbnew,(5.0.0)*
G04 #@! TF.CreationDate,2018-10-13T10:57:01-04:00*
G04 #@! TF.ProjectId,SecondPort_m3_usb,5365636F6E64506F72745F6D335F7573,1*
G04 #@! TF.SameCoordinates,Original*
G04 #@! TF.FileFunction,Other,Fab,Top*
%FSLAX46Y46*%
G04 Gerber Fmt 4.6, Leading zero omitted, Abs format (unit mm)*
G04 Created by KiCad (PCBNEW (5.0.0)) date 10/13/18 10:57:01*
%MOMM*%
%LPD*%
G01*
G04 APERTURE LIST*
%ADD10C,0.100000*%
%ADD11C,0.150000*%
G04 APERTURE END LIST*
D10*
G04 #@! TO.C,J3*
X106690000Y-139870000D02*
X106690000Y-126770000D01*
X106690000Y-126770000D02*
X126160000Y-126770000D01*
X106690000Y-139870000D02*
X126160000Y-139870000D01*
X126160000Y-139870000D02*
X126160000Y-126770000D01*
G04 #@! TO.C,J1*
X116650000Y-103500000D02*
X104650000Y-103500000D01*
X116650000Y-84700000D02*
X104650000Y-84700000D01*
X104650000Y-103500000D02*
X104650000Y-84700000D01*
X116650000Y-103500000D02*
X116650000Y-84700000D01*
G04 #@! TD*
G04 #@! TO.C,J3*
D11*
X126877380Y-138695000D02*
X127686904Y-138695000D01*
X127782142Y-138647380D01*
X127829761Y-138599761D01*
X127877380Y-138504523D01*
X127877380Y-138314047D01*
X127829761Y-138218809D01*
X127782142Y-138171190D01*
X127686904Y-138123571D01*
X126877380Y-138123571D01*
X127353571Y-137647380D02*
X127353571Y-137314047D01*
X127877380Y-137171190D02*
X127877380Y-137647380D01*
X126877380Y-137647380D01*
X126877380Y-137171190D01*
X126972619Y-136790238D02*
X126925000Y-136742619D01*
X126877380Y-136647380D01*
X126877380Y-136409285D01*
X126925000Y-136314047D01*
X126972619Y-136266428D01*
X127067857Y-136218809D01*
X127163095Y-136218809D01*
X127305952Y-136266428D01*
X127877380Y-136837857D01*
X127877380Y-136218809D01*
X126877380Y-135885476D02*
X126877380Y-135218809D01*
X127877380Y-135647380D01*
X127591666Y-134885476D02*
X127591666Y-134409285D01*
X127877380Y-134980714D02*
X126877380Y-134647380D01*
X127877380Y-134314047D01*
X127782142Y-133409285D02*
X127829761Y-133456904D01*
X127877380Y-133599761D01*
X127877380Y-133695000D01*
X127829761Y-133837857D01*
X127734523Y-133933095D01*
X127639285Y-133980714D01*
X127448809Y-134028333D01*
X127305952Y-134028333D01*
X127115476Y-133980714D01*
X127020238Y-133933095D01*
X126925000Y-133837857D01*
X126877380Y-133695000D01*
X126877380Y-133599761D01*
X126925000Y-133456904D01*
X126972619Y-133409285D01*
X126877380Y-132504523D02*
X126877380Y-132980714D01*
X127353571Y-133028333D01*
X127305952Y-132980714D01*
X127258333Y-132885476D01*
X127258333Y-132647380D01*
X127305952Y-132552142D01*
X127353571Y-132504523D01*
X127448809Y-132456904D01*
X127686904Y-132456904D01*
X127782142Y-132504523D01*
X127829761Y-132552142D01*
X127877380Y-132647380D01*
X127877380Y-132885476D01*
X127829761Y-132980714D01*
X127782142Y-133028333D01*
X127210714Y-131599761D02*
X127877380Y-131599761D01*
X126829761Y-131837857D02*
X127544047Y-132075952D01*
X127544047Y-131456904D01*
X127877380Y-130552142D02*
X127877380Y-131123571D01*
X127877380Y-130837857D02*
X126877380Y-130837857D01*
X127020238Y-130933095D01*
X127115476Y-131028333D01*
X127163095Y-131123571D01*
X126877380Y-129933095D02*
X126877380Y-129837857D01*
X126925000Y-129742619D01*
X126972619Y-129695000D01*
X127067857Y-129647380D01*
X127258333Y-129599761D01*
X127496428Y-129599761D01*
X127686904Y-129647380D01*
X127782142Y-129695000D01*
X127829761Y-129742619D01*
X127877380Y-129837857D01*
X127877380Y-129933095D01*
X127829761Y-130028333D01*
X127782142Y-130075952D01*
X127686904Y-130123571D01*
X127496428Y-130171190D01*
X127258333Y-130171190D01*
X127067857Y-130123571D01*
X126972619Y-130075952D01*
X126925000Y-130028333D01*
X126877380Y-129933095D01*
X126877380Y-128980714D02*
X126877380Y-128885476D01*
X126925000Y-128790238D01*
X126972619Y-128742619D01*
X127067857Y-128695000D01*
X127258333Y-128647380D01*
X127496428Y-128647380D01*
X127686904Y-128695000D01*
X127782142Y-128742619D01*
X127829761Y-128790238D01*
X127877380Y-128885476D01*
X127877380Y-128980714D01*
X127829761Y-129075952D01*
X127782142Y-129123571D01*
X127686904Y-129171190D01*
X127496428Y-129218809D01*
X127258333Y-129218809D01*
X127067857Y-129171190D01*
X126972619Y-129123571D01*
X126925000Y-129075952D01*
X126877380Y-128980714D01*
X109927380Y-133678333D02*
X110641666Y-133678333D01*
X110784523Y-133725952D01*
X110879761Y-133821190D01*
X110927380Y-133964047D01*
X110927380Y-134059285D01*
X109927380Y-133297380D02*
X109927380Y-132678333D01*
X110308333Y-133011666D01*
X110308333Y-132868809D01*
X110355952Y-132773571D01*
X110403571Y-132725952D01*
X110498809Y-132678333D01*
X110736904Y-132678333D01*
X110832142Y-132725952D01*
X110879761Y-132773571D01*
X110927380Y-132868809D01*
X110927380Y-133154523D01*
X110879761Y-133249761D01*
X110832142Y-133297380D01*
G04 #@! TO.C,J1*
X104947619Y-83177380D02*
X104947619Y-83986904D01*
X104995238Y-84082142D01*
X105042857Y-84129761D01*
X105138095Y-84177380D01*
X105328571Y-84177380D01*
X105423809Y-84129761D01*
X105471428Y-84082142D01*
X105519047Y-83986904D01*
X105519047Y-83177380D01*
X105995238Y-84177380D02*
X105995238Y-83177380D01*
X106376190Y-83177380D01*
X106471428Y-83225000D01*
X106519047Y-83272619D01*
X106566666Y-83367857D01*
X106566666Y-83510714D01*
X106519047Y-83605952D01*
X106471428Y-83653571D01*
X106376190Y-83701190D01*
X105995238Y-83701190D01*
X106947619Y-83272619D02*
X106995238Y-83225000D01*
X107090476Y-83177380D01*
X107328571Y-83177380D01*
X107423809Y-83225000D01*
X107471428Y-83272619D01*
X107519047Y-83367857D01*
X107519047Y-83463095D01*
X107471428Y-83605952D01*
X106900000Y-84177380D01*
X107519047Y-84177380D01*
X107947619Y-83796428D02*
X108709523Y-83796428D01*
X109138095Y-83891666D02*
X109614285Y-83891666D01*
X109042857Y-84177380D02*
X109376190Y-83177380D01*
X109709523Y-84177380D01*
X110042857Y-84177380D02*
X110042857Y-83177380D01*
X110042857Y-83653571D02*
X110614285Y-83653571D01*
X110614285Y-84177380D02*
X110614285Y-83177380D01*
X111090476Y-83796428D02*
X111852380Y-83796428D01*
X112852380Y-84177380D02*
X112280952Y-84177380D01*
X112566666Y-84177380D02*
X112566666Y-83177380D01*
X112471428Y-83320238D01*
X112376190Y-83415476D01*
X112280952Y-83463095D01*
X113280952Y-83796428D02*
X114042857Y-83796428D01*
X114376190Y-83177380D02*
X114947619Y-83177380D01*
X114661904Y-84177380D02*
X114661904Y-83177380D01*
X115280952Y-84177380D02*
X115280952Y-83177380D01*
X115280952Y-83653571D02*
X115852380Y-83653571D01*
X115852380Y-84177380D02*
X115852380Y-83177380D01*
X110291666Y-100127380D02*
X110291666Y-100841666D01*
X110244047Y-100984523D01*
X110148809Y-101079761D01*
X110005952Y-101127380D01*
X109910714Y-101127380D01*
X111291666Y-101127380D02*
X110720238Y-101127380D01*
X111005952Y-101127380D02*
X111005952Y-100127380D01*
X110910714Y-100270238D01*
X110815476Y-100365476D01*
X110720238Y-100413095D01*
G04 #@! TD*
M02*
