G04 #@! TF.GenerationSoftware,KiCad,Pcbnew,(5.0.0)*
G04 #@! TF.CreationDate,2018-10-13T10:57:01-04:00*
G04 #@! TF.ProjectId,SecondPort_m3_usb,5365636F6E64506F72745F6D335F7573,1*
G04 #@! TF.SameCoordinates,Original*
G04 #@! TF.FileFunction,Legend,Bot*
G04 #@! TF.FilePolarity,Positive*
%FSLAX46Y46*%
G04 Gerber Fmt 4.6, Leading zero omitted, Abs format (unit mm)*
G04 Created by KiCad (PCBNEW (5.0.0)) date 10/13/18 10:57:01*
%MOMM*%
%LPD*%
G01*
G04 APERTURE LIST*
%ADD10C,0.300000*%
%ADD11C,0.100000*%
%ADD12C,0.120000*%
%ADD13C,0.150000*%
G04 APERTURE END LIST*
D10*
X112000000Y-130250000D02*
G75*
G03X112000000Y-130250000I-250000J0D01*
G01*
D11*
G04 #@! TO.C,J2*
X96225000Y-121200000D02*
X96225000Y-122175000D01*
X96225000Y-122175000D02*
X96900000Y-122175000D01*
X96875000Y-108825000D02*
X96225000Y-108825000D01*
X96225000Y-108825000D02*
X96225000Y-109525000D01*
X115925000Y-121150000D02*
X115925000Y-122175000D01*
X115925000Y-122175000D02*
X115125000Y-122175000D01*
X115925000Y-109775000D02*
X115925000Y-108825000D01*
X115925000Y-108825000D02*
X115200000Y-108825000D01*
D12*
G04 #@! TO.C,R1*
X108870000Y-132600000D02*
X108870000Y-133800000D01*
X110630000Y-133800000D02*
X110630000Y-132600000D01*
G04 #@! TO.C,U1*
X111640000Y-134050000D02*
X111640000Y-131600000D01*
X114860000Y-132250000D02*
X114860000Y-134050000D01*
G04 #@! TO.C,C2*
X115250000Y-128230000D02*
X113250000Y-128230000D01*
X113250000Y-125270000D02*
X115250000Y-125270000D01*
G04 #@! TO.C,C1*
X114730000Y-137500000D02*
X114730000Y-139500000D01*
X111770000Y-139500000D02*
X111770000Y-137500000D01*
G04 #@! TO.C,U1*
D13*
X113702380Y-128988095D02*
X114511904Y-128988095D01*
X114607142Y-129035714D01*
X114654761Y-129083333D01*
X114702380Y-129178571D01*
X114702380Y-129369047D01*
X114654761Y-129464285D01*
X114607142Y-129511904D01*
X114511904Y-129559523D01*
X113702380Y-129559523D01*
X114702380Y-130559523D02*
X114702380Y-129988095D01*
X114702380Y-130273809D02*
X113702380Y-130273809D01*
X113845238Y-130178571D01*
X113940476Y-130083333D01*
X113988095Y-129988095D01*
G04 #@! TD*
M02*
