G04 #@! TF.GenerationSoftware,KiCad,Pcbnew,(5.0.0)*
G04 #@! TF.CreationDate,2018-10-13T10:57:01-04:00*
G04 #@! TF.ProjectId,SecondPort_m3_usb,5365636F6E64506F72745F6D335F7573,1*
G04 #@! TF.SameCoordinates,Original*
G04 #@! TF.FileFunction,Other,Fab,Bot*
%FSLAX46Y46*%
G04 Gerber Fmt 4.6, Leading zero omitted, Abs format (unit mm)*
G04 Created by KiCad (PCBNEW (5.0.0)) date 10/13/18 10:57:01*
%MOMM*%
%LPD*%
G01*
G04 APERTURE LIST*
%ADD10C,0.100000*%
%ADD11C,0.150000*%
%ADD12C,0.075000*%
G04 APERTURE END LIST*
D10*
G04 #@! TO.C,J2*
X96340000Y-122050000D02*
X96340000Y-108950000D01*
X115810000Y-122050000D02*
X96340000Y-122050000D01*
X115810000Y-108950000D02*
X96340000Y-108950000D01*
X115810000Y-122050000D02*
X115810000Y-108950000D01*
G04 #@! TO.C,R1*
X109130000Y-132200000D02*
X109130000Y-134200000D01*
X109130000Y-134200000D02*
X110370000Y-134200000D01*
X110370000Y-134200000D02*
X110370000Y-132200000D01*
X110370000Y-132200000D02*
X109130000Y-132200000D01*
G04 #@! TO.C,U1*
X111700000Y-134050000D02*
X114800000Y-134050000D01*
X114800000Y-134050000D02*
X114800000Y-132250000D01*
X112350000Y-132250000D02*
X114800000Y-132250000D01*
X111700000Y-134050000D02*
X111700000Y-132900000D01*
X112350000Y-132250000D02*
X111700000Y-132900000D01*
G04 #@! TO.C,C2*
X115850000Y-125500000D02*
X112650000Y-125500000D01*
X112650000Y-125500000D02*
X112650000Y-128000000D01*
X112650000Y-128000000D02*
X115850000Y-128000000D01*
X115850000Y-128000000D02*
X115850000Y-125500000D01*
G04 #@! TO.C,C1*
X112000000Y-136900000D02*
X112000000Y-140100000D01*
X112000000Y-140100000D02*
X114500000Y-140100000D01*
X114500000Y-140100000D02*
X114500000Y-136900000D01*
X114500000Y-136900000D02*
X112000000Y-136900000D01*
G04 #@! TD*
G04 #@! TO.C,J2*
D11*
X94527380Y-110875000D02*
X95336904Y-110875000D01*
X95432142Y-110922619D01*
X95479761Y-110970238D01*
X95527380Y-111065476D01*
X95527380Y-111255952D01*
X95479761Y-111351190D01*
X95432142Y-111398809D01*
X95336904Y-111446428D01*
X94527380Y-111446428D01*
X95003571Y-111922619D02*
X95003571Y-112255952D01*
X95527380Y-112398809D02*
X95527380Y-111922619D01*
X94527380Y-111922619D01*
X94527380Y-112398809D01*
X94622619Y-112779761D02*
X94575000Y-112827380D01*
X94527380Y-112922619D01*
X94527380Y-113160714D01*
X94575000Y-113255952D01*
X94622619Y-113303571D01*
X94717857Y-113351190D01*
X94813095Y-113351190D01*
X94955952Y-113303571D01*
X95527380Y-112732142D01*
X95527380Y-113351190D01*
X94527380Y-113684523D02*
X94527380Y-114351190D01*
X95527380Y-113922619D01*
X95241666Y-114684523D02*
X95241666Y-115160714D01*
X95527380Y-114589285D02*
X94527380Y-114922619D01*
X95527380Y-115255952D01*
X95432142Y-116160714D02*
X95479761Y-116113095D01*
X95527380Y-115970238D01*
X95527380Y-115875000D01*
X95479761Y-115732142D01*
X95384523Y-115636904D01*
X95289285Y-115589285D01*
X95098809Y-115541666D01*
X94955952Y-115541666D01*
X94765476Y-115589285D01*
X94670238Y-115636904D01*
X94575000Y-115732142D01*
X94527380Y-115875000D01*
X94527380Y-115970238D01*
X94575000Y-116113095D01*
X94622619Y-116160714D01*
X94527380Y-117065476D02*
X94527380Y-116589285D01*
X95003571Y-116541666D01*
X94955952Y-116589285D01*
X94908333Y-116684523D01*
X94908333Y-116922619D01*
X94955952Y-117017857D01*
X95003571Y-117065476D01*
X95098809Y-117113095D01*
X95336904Y-117113095D01*
X95432142Y-117065476D01*
X95479761Y-117017857D01*
X95527380Y-116922619D01*
X95527380Y-116684523D01*
X95479761Y-116589285D01*
X95432142Y-116541666D01*
X94860714Y-117970238D02*
X95527380Y-117970238D01*
X94479761Y-117732142D02*
X95194047Y-117494047D01*
X95194047Y-118113095D01*
X95527380Y-119017857D02*
X95527380Y-118446428D01*
X95527380Y-118732142D02*
X94527380Y-118732142D01*
X94670238Y-118636904D01*
X94765476Y-118541666D01*
X94813095Y-118446428D01*
X94527380Y-119636904D02*
X94527380Y-119732142D01*
X94575000Y-119827380D01*
X94622619Y-119875000D01*
X94717857Y-119922619D01*
X94908333Y-119970238D01*
X95146428Y-119970238D01*
X95336904Y-119922619D01*
X95432142Y-119875000D01*
X95479761Y-119827380D01*
X95527380Y-119732142D01*
X95527380Y-119636904D01*
X95479761Y-119541666D01*
X95432142Y-119494047D01*
X95336904Y-119446428D01*
X95146428Y-119398809D01*
X94908333Y-119398809D01*
X94717857Y-119446428D01*
X94622619Y-119494047D01*
X94575000Y-119541666D01*
X94527380Y-119636904D01*
X94527380Y-120589285D02*
X94527380Y-120684523D01*
X94575000Y-120779761D01*
X94622619Y-120827380D01*
X94717857Y-120875000D01*
X94908333Y-120922619D01*
X95146428Y-120922619D01*
X95336904Y-120875000D01*
X95432142Y-120827380D01*
X95479761Y-120779761D01*
X95527380Y-120684523D01*
X95527380Y-120589285D01*
X95479761Y-120494047D01*
X95432142Y-120446428D01*
X95336904Y-120398809D01*
X95146428Y-120351190D01*
X94908333Y-120351190D01*
X94717857Y-120398809D01*
X94622619Y-120446428D01*
X94575000Y-120494047D01*
X94527380Y-120589285D01*
X111477380Y-115191666D02*
X112191666Y-115191666D01*
X112334523Y-115144047D01*
X112429761Y-115048809D01*
X112477380Y-114905952D01*
X112477380Y-114810714D01*
X111572619Y-115620238D02*
X111525000Y-115667857D01*
X111477380Y-115763095D01*
X111477380Y-116001190D01*
X111525000Y-116096428D01*
X111572619Y-116144047D01*
X111667857Y-116191666D01*
X111763095Y-116191666D01*
X111905952Y-116144047D01*
X112477380Y-115572619D01*
X112477380Y-116191666D01*
G04 #@! TO.C,R1*
X110952380Y-132652380D02*
X110952380Y-132747619D01*
X111000000Y-132842857D01*
X111047619Y-132890476D01*
X111142857Y-132938095D01*
X111333333Y-132985714D01*
X111571428Y-132985714D01*
X111761904Y-132938095D01*
X111857142Y-132890476D01*
X111904761Y-132842857D01*
X111952380Y-132747619D01*
X111952380Y-132652380D01*
X111904761Y-132557142D01*
X111857142Y-132509523D01*
X111761904Y-132461904D01*
X111571428Y-132414285D01*
X111333333Y-132414285D01*
X111142857Y-132461904D01*
X111047619Y-132509523D01*
X111000000Y-132557142D01*
X110952380Y-132652380D01*
X111952380Y-133985714D02*
X111476190Y-133652380D01*
X111952380Y-133414285D02*
X110952380Y-133414285D01*
X110952380Y-133795238D01*
X111000000Y-133890476D01*
X111047619Y-133938095D01*
X111142857Y-133985714D01*
X111285714Y-133985714D01*
X111380952Y-133938095D01*
X111428571Y-133890476D01*
X111476190Y-133795238D01*
X111476190Y-133414285D01*
D12*
X109976190Y-133116666D02*
X109738095Y-132950000D01*
X109976190Y-132830952D02*
X109476190Y-132830952D01*
X109476190Y-133021428D01*
X109500000Y-133069047D01*
X109523809Y-133092857D01*
X109571428Y-133116666D01*
X109642857Y-133116666D01*
X109690476Y-133092857D01*
X109714285Y-133069047D01*
X109738095Y-133021428D01*
X109738095Y-132830952D01*
X109976190Y-133592857D02*
X109976190Y-133307142D01*
X109976190Y-133450000D02*
X109476190Y-133450000D01*
X109547619Y-133402380D01*
X109595238Y-133354761D01*
X109619047Y-133307142D01*
G04 #@! TO.C,U1*
D11*
X115602380Y-129554761D02*
X115602380Y-130126190D01*
X116602380Y-129840476D02*
X115602380Y-129840476D01*
X116602380Y-130459523D02*
X115602380Y-130459523D01*
X115602380Y-130840476D01*
X115650000Y-130935714D01*
X115697619Y-130983333D01*
X115792857Y-131030952D01*
X115935714Y-131030952D01*
X116030952Y-130983333D01*
X116078571Y-130935714D01*
X116126190Y-130840476D01*
X116126190Y-130459523D01*
X116554761Y-131411904D02*
X116602380Y-131554761D01*
X116602380Y-131792857D01*
X116554761Y-131888095D01*
X116507142Y-131935714D01*
X116411904Y-131983333D01*
X116316666Y-131983333D01*
X116221428Y-131935714D01*
X116173809Y-131888095D01*
X116126190Y-131792857D01*
X116078571Y-131602380D01*
X116030952Y-131507142D01*
X115983333Y-131459523D01*
X115888095Y-131411904D01*
X115792857Y-131411904D01*
X115697619Y-131459523D01*
X115650000Y-131507142D01*
X115602380Y-131602380D01*
X115602380Y-131840476D01*
X115650000Y-131983333D01*
X115697619Y-132364285D02*
X115650000Y-132411904D01*
X115602380Y-132507142D01*
X115602380Y-132745238D01*
X115650000Y-132840476D01*
X115697619Y-132888095D01*
X115792857Y-132935714D01*
X115888095Y-132935714D01*
X116030952Y-132888095D01*
X116602380Y-132316666D01*
X116602380Y-132935714D01*
X115602380Y-133840476D02*
X115602380Y-133364285D01*
X116078571Y-133316666D01*
X116030952Y-133364285D01*
X115983333Y-133459523D01*
X115983333Y-133697619D01*
X116030952Y-133792857D01*
X116078571Y-133840476D01*
X116173809Y-133888095D01*
X116411904Y-133888095D01*
X116507142Y-133840476D01*
X116554761Y-133792857D01*
X116602380Y-133697619D01*
X116602380Y-133459523D01*
X116554761Y-133364285D01*
X116507142Y-133316666D01*
X116602380Y-134840476D02*
X116602380Y-134269047D01*
X116602380Y-134554761D02*
X115602380Y-134554761D01*
X115745238Y-134459523D01*
X115840476Y-134364285D01*
X115888095Y-134269047D01*
X115935714Y-135697619D02*
X116602380Y-135697619D01*
X115554761Y-135459523D02*
X116269047Y-135221428D01*
X116269047Y-135840476D01*
X116316666Y-136173809D02*
X116316666Y-136650000D01*
X116602380Y-136078571D02*
X115602380Y-136411904D01*
X116602380Y-136745238D01*
D12*
X113630952Y-132876190D02*
X113630952Y-133280952D01*
X113607142Y-133328571D01*
X113583333Y-133352380D01*
X113535714Y-133376190D01*
X113440476Y-133376190D01*
X113392857Y-133352380D01*
X113369047Y-133328571D01*
X113345238Y-133280952D01*
X113345238Y-132876190D01*
X112845238Y-133376190D02*
X113130952Y-133376190D01*
X112988095Y-133376190D02*
X112988095Y-132876190D01*
X113035714Y-132947619D01*
X113083333Y-132995238D01*
X113130952Y-133019047D01*
G04 #@! TO.C,C2*
D11*
X115321428Y-129702380D02*
X115892857Y-129702380D01*
X115607142Y-129702380D02*
X115607142Y-128702380D01*
X115702380Y-128845238D01*
X115797619Y-128940476D01*
X115892857Y-128988095D01*
X114702380Y-128702380D02*
X114607142Y-128702380D01*
X114511904Y-128750000D01*
X114464285Y-128797619D01*
X114416666Y-128892857D01*
X114369047Y-129083333D01*
X114369047Y-129321428D01*
X114416666Y-129511904D01*
X114464285Y-129607142D01*
X114511904Y-129654761D01*
X114607142Y-129702380D01*
X114702380Y-129702380D01*
X114797619Y-129654761D01*
X114845238Y-129607142D01*
X114892857Y-129511904D01*
X114940476Y-129321428D01*
X114940476Y-129083333D01*
X114892857Y-128892857D01*
X114845238Y-128797619D01*
X114797619Y-128750000D01*
X114702380Y-128702380D01*
X113511904Y-129035714D02*
X113511904Y-129702380D01*
X113940476Y-129035714D02*
X113940476Y-129559523D01*
X113892857Y-129654761D01*
X113797619Y-129702380D01*
X113654761Y-129702380D01*
X113559523Y-129654761D01*
X113511904Y-129607142D01*
X112702380Y-129178571D02*
X113035714Y-129178571D01*
X113035714Y-129702380D02*
X113035714Y-128702380D01*
X112559523Y-128702380D01*
X114416666Y-124857142D02*
X114464285Y-124904761D01*
X114607142Y-124952380D01*
X114702380Y-124952380D01*
X114845238Y-124904761D01*
X114940476Y-124809523D01*
X114988095Y-124714285D01*
X115035714Y-124523809D01*
X115035714Y-124380952D01*
X114988095Y-124190476D01*
X114940476Y-124095238D01*
X114845238Y-124000000D01*
X114702380Y-123952380D01*
X114607142Y-123952380D01*
X114464285Y-124000000D01*
X114416666Y-124047619D01*
X114035714Y-124047619D02*
X113988095Y-124000000D01*
X113892857Y-123952380D01*
X113654761Y-123952380D01*
X113559523Y-124000000D01*
X113511904Y-124047619D01*
X113464285Y-124142857D01*
X113464285Y-124238095D01*
X113511904Y-124380952D01*
X114083333Y-124952380D01*
X113464285Y-124952380D01*
G04 #@! TO.C,C1*
X116202380Y-137428571D02*
X116202380Y-136857142D01*
X116202380Y-137142857D02*
X115202380Y-137142857D01*
X115345238Y-137047619D01*
X115440476Y-136952380D01*
X115488095Y-136857142D01*
X115202380Y-138047619D02*
X115202380Y-138142857D01*
X115250000Y-138238095D01*
X115297619Y-138285714D01*
X115392857Y-138333333D01*
X115583333Y-138380952D01*
X115821428Y-138380952D01*
X116011904Y-138333333D01*
X116107142Y-138285714D01*
X116154761Y-138238095D01*
X116202380Y-138142857D01*
X116202380Y-138047619D01*
X116154761Y-137952380D01*
X116107142Y-137904761D01*
X116011904Y-137857142D01*
X115821428Y-137809523D01*
X115583333Y-137809523D01*
X115392857Y-137857142D01*
X115297619Y-137904761D01*
X115250000Y-137952380D01*
X115202380Y-138047619D01*
X115535714Y-139238095D02*
X116202380Y-139238095D01*
X115535714Y-138809523D02*
X116059523Y-138809523D01*
X116154761Y-138857142D01*
X116202380Y-138952380D01*
X116202380Y-139095238D01*
X116154761Y-139190476D01*
X116107142Y-139238095D01*
X115678571Y-140047619D02*
X115678571Y-139714285D01*
X116202380Y-139714285D02*
X115202380Y-139714285D01*
X115202380Y-140190476D01*
X111357142Y-138333333D02*
X111404761Y-138285714D01*
X111452380Y-138142857D01*
X111452380Y-138047619D01*
X111404761Y-137904761D01*
X111309523Y-137809523D01*
X111214285Y-137761904D01*
X111023809Y-137714285D01*
X110880952Y-137714285D01*
X110690476Y-137761904D01*
X110595238Y-137809523D01*
X110500000Y-137904761D01*
X110452380Y-138047619D01*
X110452380Y-138142857D01*
X110500000Y-138285714D01*
X110547619Y-138333333D01*
X111452380Y-139285714D02*
X111452380Y-138714285D01*
X111452380Y-139000000D02*
X110452380Y-139000000D01*
X110595238Y-138904761D01*
X110690476Y-138809523D01*
X110738095Y-138714285D01*
G04 #@! TD*
M02*
