M48
;DRILL file {KiCad (5.0.0)} date 10/13/18 10:56:55
;FORMAT={-:-/ absolute / inch / decimal}
FMAT,2
INCH,TZ
T1C0.0177
T2C0.0354
T3C0.0394
T4C0.0472
T5C0.0787
T6C0.0866
T7C0.0906
%
G90
G05
M72
T1
X4.3602Y-5.3937
X4.439Y-5.0886
X4.5571Y-4.8917
X4.5571Y-5.0886
X4.5571Y-5.3937
X4.5571Y-5.5118
T2
X4.5551Y-4.498
X4.5555Y-4.3996
X4.5555Y-4.6949
X4.5561Y-4.5965
X4.2037Y-5.298
X4.2043Y-5.1012
X4.2043Y-5.3965
X4.2047Y-5.1996
T3
X4.2185Y-4.1181
X4.3169Y-4.1181
X4.3957Y-4.1181
X4.4941Y-4.1181
T4
X4.2657Y-4.0354
X4.4469Y-4.0354
T6
X4.5866Y-4.0354
T7
X4.4488Y-4.2886
X4.4488Y-4.8059
X4.311Y-4.9902
X4.311Y-5.5075
T5
X4.1299Y-4.0354G85X4.122Y-4.0354
G05
T0
M30
