G04 #@! TF.GenerationSoftware,KiCad,Pcbnew,(5.0.0)*
G04 #@! TF.CreationDate,2018-10-13T10:57:01-04:00*
G04 #@! TF.ProjectId,SecondPort_m3_usb,5365636F6E64506F72745F6D335F7573,1*
G04 #@! TF.SameCoordinates,Original*
G04 #@! TF.FileFunction,Copper,L1,Top,Signal*
G04 #@! TF.FilePolarity,Positive*
%FSLAX46Y46*%
G04 Gerber Fmt 4.6, Leading zero omitted, Abs format (unit mm)*
G04 Created by KiCad (PCBNEW (5.0.0)) date 10/13/18 10:57:01*
%MOMM*%
%LPD*%
G01*
G04 APERTURE LIST*
G04 #@! TA.AperFunction,ComponentPad*
%ADD10C,1.900000*%
G04 #@! TD*
G04 #@! TA.AperFunction,ComponentPad*
%ADD11C,3.300000*%
G04 #@! TD*
G04 #@! TA.AperFunction,ComponentPad*
%ADD12O,3.000000X4.200000*%
G04 #@! TD*
G04 #@! TA.AperFunction,ComponentPad*
%ADD13C,2.200000*%
G04 #@! TD*
G04 #@! TA.AperFunction,ComponentPad*
%ADD14C,1.800000*%
G04 #@! TD*
G04 #@! TA.AperFunction,ViaPad*
%ADD15C,1.100000*%
G04 #@! TD*
G04 #@! TA.AperFunction,Conductor*
%ADD16C,1.000000*%
G04 #@! TD*
G04 #@! TA.AperFunction,Conductor*
%ADD17C,0.254000*%
G04 #@! TD*
G04 APERTURE END LIST*
D10*
G04 #@! TO.P,J3,4*
G04 #@! TO.N,GND*
X106790000Y-129570000D03*
G04 #@! TO.P,J3,3*
G04 #@! TO.N,Net-(J3-Pad3)*
X106800000Y-132070000D03*
G04 #@! TO.P,J3,2*
G04 #@! TO.N,Net-(J3-Pad2)*
X106775000Y-134570000D03*
G04 #@! TO.P,J3,1*
G04 #@! TO.N,VBUS*
X106790000Y-137070000D03*
D11*
G04 #@! TO.P,J3,5*
G04 #@! TO.N,GND*
X109500000Y-126750000D03*
X109500000Y-139890000D03*
G04 #@! TD*
D12*
G04 #@! TO.P,J1,5*
G04 #@! TO.N,GND*
X116500000Y-102500000D03*
X104800000Y-102500000D03*
D13*
X112950000Y-102500000D03*
X108350000Y-102500000D03*
D14*
G04 #@! TO.P,J1,4*
X114150000Y-104600000D03*
G04 #@! TO.P,J1,3*
G04 #@! TO.N,Net-(J1-Pad3)*
X111650000Y-104600000D03*
G04 #@! TO.P,J1,2*
G04 #@! TO.N,Net-(J1-Pad2)*
X109650000Y-104600000D03*
G04 #@! TO.P,J1,1*
G04 #@! TO.N,VBUS*
X107150000Y-104600000D03*
G04 #@! TD*
D11*
G04 #@! TO.P,J2,5*
G04 #@! TO.N,GND*
X113000000Y-122070000D03*
X113000000Y-108930000D03*
D10*
G04 #@! TO.P,J2,1*
G04 #@! TO.N,VBUS*
X115710000Y-119250000D03*
G04 #@! TO.P,J2,2*
G04 #@! TO.N,Net-(J1-Pad2)*
X115725000Y-116750000D03*
G04 #@! TO.P,J2,3*
G04 #@! TO.N,Net-(J1-Pad3)*
X115700000Y-114250000D03*
G04 #@! TO.P,J2,4*
G04 #@! TO.N,GND*
X115710000Y-111750000D03*
G04 #@! TD*
D15*
G04 #@! TO.N,GND*
X112750000Y-129250000D03*
X115750000Y-140000000D03*
G04 #@! TO.N,VBUS*
X115750000Y-124250000D03*
X115750000Y-129250000D03*
X115750000Y-137000000D03*
X110750000Y-137000000D03*
G04 #@! TD*
D16*
G04 #@! TO.N,Net-(J1-Pad3)*
X115450000Y-114500000D02*
X115700000Y-114250000D01*
X113500000Y-114500000D02*
X115450000Y-114500000D01*
X113000000Y-114000000D02*
X113500000Y-114500000D01*
X113000000Y-112250000D02*
X113000000Y-114000000D01*
X112250000Y-111500000D02*
X113000000Y-112250000D01*
X111650000Y-104600000D02*
X111250000Y-105000000D01*
X111250000Y-106750000D02*
X110250000Y-107750000D01*
X111250000Y-105000000D02*
X111250000Y-106750000D01*
X110250000Y-107750000D02*
X110250000Y-111000000D01*
X110250000Y-111000000D02*
X110750000Y-111500000D01*
X110750000Y-111500000D02*
X112250000Y-111500000D01*
G04 #@! TO.N,Net-(J1-Pad2)*
X115225000Y-116250000D02*
X115725000Y-116750000D01*
X110000000Y-104950000D02*
X110000000Y-106250000D01*
X110000000Y-106250000D02*
X109000000Y-107250000D01*
X109000000Y-107250000D02*
X109000000Y-112000000D01*
X109650000Y-104600000D02*
X110000000Y-104950000D01*
X109000000Y-112000000D02*
X113250000Y-116250000D01*
X113250000Y-116250000D02*
X115225000Y-116250000D01*
G04 #@! TD*
D17*
G04 #@! TO.N,VBUS*
G36*
X107873000Y-104966273D02*
X106889733Y-106686990D01*
X106873000Y-106750000D01*
X106873000Y-112750000D01*
X106882667Y-112798601D01*
X106910197Y-112839803D01*
X112410197Y-118339803D01*
X112451399Y-118367333D01*
X112500000Y-118377000D01*
X116873000Y-118377000D01*
X116873000Y-119623000D01*
X105000000Y-119623000D01*
X104951399Y-119632667D01*
X104910197Y-119660197D01*
X104882667Y-119701399D01*
X104873000Y-119750000D01*
X104873000Y-136000000D01*
X104882667Y-136048601D01*
X104910197Y-136089803D01*
X104951399Y-136117333D01*
X105000000Y-136127000D01*
X106947394Y-136127000D01*
X107852372Y-137031978D01*
X107161989Y-138873000D01*
X103377000Y-138873000D01*
X103377000Y-107302606D01*
X105829936Y-104849670D01*
X106261385Y-104561385D01*
X106384587Y-104377000D01*
X107873000Y-104377000D01*
X107873000Y-104966273D01*
X107873000Y-104966273D01*
G37*
X107873000Y-104966273D02*
X106889733Y-106686990D01*
X106873000Y-106750000D01*
X106873000Y-112750000D01*
X106882667Y-112798601D01*
X106910197Y-112839803D01*
X112410197Y-118339803D01*
X112451399Y-118367333D01*
X112500000Y-118377000D01*
X116873000Y-118377000D01*
X116873000Y-119623000D01*
X105000000Y-119623000D01*
X104951399Y-119632667D01*
X104910197Y-119660197D01*
X104882667Y-119701399D01*
X104873000Y-119750000D01*
X104873000Y-136000000D01*
X104882667Y-136048601D01*
X104910197Y-136089803D01*
X104951399Y-136117333D01*
X105000000Y-136127000D01*
X106947394Y-136127000D01*
X107852372Y-137031978D01*
X107161989Y-138873000D01*
X103377000Y-138873000D01*
X103377000Y-107302606D01*
X105829936Y-104849670D01*
X106261385Y-104561385D01*
X106384587Y-104377000D01*
X107873000Y-104377000D01*
X107873000Y-104966273D01*
G36*
X119123000Y-137623000D02*
X115250000Y-137623000D01*
X115201399Y-137632667D01*
X115160197Y-137660197D01*
X114697394Y-138123000D01*
X111802606Y-138123000D01*
X111339803Y-137660197D01*
X111298601Y-137632667D01*
X111250000Y-137623000D01*
X107500000Y-137623000D01*
X107451399Y-137632667D01*
X107410197Y-137660197D01*
X107197394Y-137873000D01*
X106627000Y-137873000D01*
X106627000Y-136377000D01*
X115500000Y-136377000D01*
X115548601Y-136367333D01*
X115589803Y-136339803D01*
X115617333Y-136298601D01*
X115627000Y-136250000D01*
X115627000Y-129250000D01*
X115617333Y-129201399D01*
X115589803Y-129160197D01*
X114877000Y-128447394D01*
X114877000Y-124302606D01*
X115839803Y-123339803D01*
X115867333Y-123298601D01*
X115877000Y-123250000D01*
X115877000Y-118377000D01*
X119123000Y-118377000D01*
X119123000Y-137623000D01*
X119123000Y-137623000D01*
G37*
X119123000Y-137623000D02*
X115250000Y-137623000D01*
X115201399Y-137632667D01*
X115160197Y-137660197D01*
X114697394Y-138123000D01*
X111802606Y-138123000D01*
X111339803Y-137660197D01*
X111298601Y-137632667D01*
X111250000Y-137623000D01*
X107500000Y-137623000D01*
X107451399Y-137632667D01*
X107410197Y-137660197D01*
X107197394Y-137873000D01*
X106627000Y-137873000D01*
X106627000Y-136377000D01*
X115500000Y-136377000D01*
X115548601Y-136367333D01*
X115589803Y-136339803D01*
X115617333Y-136298601D01*
X115627000Y-136250000D01*
X115627000Y-129250000D01*
X115617333Y-129201399D01*
X115589803Y-129160197D01*
X114877000Y-128447394D01*
X114877000Y-124302606D01*
X115839803Y-123339803D01*
X115867333Y-123298601D01*
X115877000Y-123250000D01*
X115877000Y-118377000D01*
X119123000Y-118377000D01*
X119123000Y-137623000D01*
G04 #@! TO.N,GND*
G36*
X119123000Y-141873000D02*
X103377000Y-141873000D01*
X103377000Y-139627000D01*
X107750000Y-139627000D01*
X107790161Y-139620483D01*
X109270610Y-139127000D01*
X119123000Y-139127000D01*
X119123000Y-141873000D01*
X119123000Y-141873000D01*
G37*
X119123000Y-141873000D02*
X103377000Y-141873000D01*
X103377000Y-139627000D01*
X107750000Y-139627000D01*
X107790161Y-139620483D01*
X109270610Y-139127000D01*
X119123000Y-139127000D01*
X119123000Y-141873000D01*
G36*
X114873000Y-121302606D02*
X114873000Y-122447394D01*
X113660197Y-123660197D01*
X113632667Y-123701399D01*
X113623000Y-123750000D01*
X113623000Y-128500000D01*
X113632667Y-128548601D01*
X113660197Y-128589803D01*
X114623000Y-129552606D01*
X114623000Y-135373000D01*
X108377000Y-135373000D01*
X108377000Y-130000000D01*
X108367333Y-129951399D01*
X108339803Y-129910197D01*
X108298601Y-129882667D01*
X108250000Y-129873000D01*
X105877000Y-129873000D01*
X105877000Y-120627000D01*
X114197394Y-120627000D01*
X114873000Y-121302606D01*
X114873000Y-121302606D01*
G37*
X114873000Y-121302606D02*
X114873000Y-122447394D01*
X113660197Y-123660197D01*
X113632667Y-123701399D01*
X113623000Y-123750000D01*
X113623000Y-128500000D01*
X113632667Y-128548601D01*
X113660197Y-128589803D01*
X114623000Y-129552606D01*
X114623000Y-135373000D01*
X108377000Y-135373000D01*
X108377000Y-130000000D01*
X108367333Y-129951399D01*
X108339803Y-129910197D01*
X108298601Y-129882667D01*
X108250000Y-129873000D01*
X105877000Y-129873000D01*
X105877000Y-120627000D01*
X114197394Y-120627000D01*
X114873000Y-121302606D01*
G36*
X118873000Y-112373000D02*
X115546521Y-112373000D01*
X112377000Y-109691097D01*
X112377000Y-108282909D01*
X113611018Y-106061677D01*
X113627000Y-106000000D01*
X113627000Y-103000000D01*
X113617333Y-102951399D01*
X113589803Y-102910197D01*
X113548601Y-102882667D01*
X113500000Y-102873000D01*
X103877000Y-102873000D01*
X103877000Y-100377000D01*
X118873000Y-100377000D01*
X118873000Y-112373000D01*
X118873000Y-112373000D01*
G37*
X118873000Y-112373000D02*
X115546521Y-112373000D01*
X112377000Y-109691097D01*
X112377000Y-108282909D01*
X113611018Y-106061677D01*
X113627000Y-106000000D01*
X113627000Y-103000000D01*
X113617333Y-102951399D01*
X113589803Y-102910197D01*
X113548601Y-102882667D01*
X113500000Y-102873000D01*
X103877000Y-102873000D01*
X103877000Y-100377000D01*
X118873000Y-100377000D01*
X118873000Y-112373000D01*
G04 #@! TD*
M02*
